<svg class="animated" id="freepik_stories-hairdresser-team" xmlns="http://www.w3.org/2000/svg" viewBox="0 0 750 500" version="1.1" xmlns:xlink="http://www.w3.org/1999/xlink" xmlns:svgjs="http://svgjs.com/svgjs"><style>svg#freepik_stories-hairdresser-team:not(.animated) .animable {opacity: 0;}svg#freepik_stories-hairdresser-team.animated #freepik--Mirrors--inject-66 {animation: 6s Infinite  linear floating;animation-delay: 0s;}svg#freepik_stories-hairdresser-team.animated #freepik--character-3--inject-66 {animation: 6s Infinite  linear wind;animation-delay: 1.5s;}svg#freepik_stories-hairdresser-team.animated #freepik--character-1--inject-66 {animation: 6s Infinite  linear wind;animation-delay: 0s;}svg#freepik_stories-hairdresser-team.animated #freepik--character-2--inject-66 {animation: 3s Infinite  linear wind;animation-delay: 0s;}            @keyframes floating {                0% {                    opacity: 1;                    transform: translateY(0px);                }                50% {                    transform: translateY(-10px);                }                100% {                    opacity: 1;                    transform: translateY(0px);                }            }                    @keyframes wind {                0% {                    transform: rotate( 0deg );                }                25% {                    transform: rotate( 1deg );                }                75% {                    transform: rotate( -1deg );                }            }        </style><g id="freepik--background-complete--inject-66" class="animable" style="transform-origin: 375px 406.19px;"><g id="eli30nix1v82c"><rect x="57.14" y="430.71" width="635.72" height="12.5" style="fill: rgb(199, 199, 199); transform-origin: 375px 436.96px; transform: rotate(180deg);" class="animable"></rect></g><g id="elqoel7pyz97"><rect x="57.75" y="406.75" width="44.23" height="1.38" style="fill: rgb(235, 235, 235); transform-origin: 79.865px 407.44px; transform: rotate(-78.81deg);" class="animable"></rect></g><g id="elqabtdpn43yq"><rect x="76.54" y="384.83" width="1.38" height="46.11" style="fill: rgb(235, 235, 235); transform-origin: 77.23px 407.885px; transform: rotate(-12.98deg);" class="animable"></rect></g><g id="el3aljkkhgvk8"><rect x="73.13" y="385.31" width="1.38" height="46.05" style="fill: rgb(235, 235, 235); transform-origin: 73.82px 408.335px; transform: rotate(-17.06deg);" class="animable"></rect></g><g id="elfannnu6ofy8"><rect x="54.71" y="407.5" width="43.93" height="1.38" style="fill: rgb(235, 235, 235); transform-origin: 76.675px 408.19px; transform: rotate(-72.47deg);" class="animable"></rect></g><g id="elg7mu4dwtm9u"><rect x="53.45" y="406.66" width="44.5" height="1.38" style="fill: rgb(235, 235, 235); transform-origin: 75.7px 407.35px; transform: rotate(-88.69deg);" class="animable"></rect></g><polygon points="68.61 430.71 84.16 430.71 81.07 411.24 71.7 411.24 68.61 430.71" style="fill: rgb(166, 166, 166); transform-origin: 76.385px 420.975px;" id="elnn9to8jglbe" class="animable"></polygon><g id="el5l2bp6crx7g"><rect x="122.63" y="383.51" width="31.95" height="47.21" style="fill: rgb(219, 219, 219); transform-origin: 138.605px 407.115px; transform: rotate(180deg);" class="animable"></rect></g><g id="ela1cvri5fatc"><rect x="132.09" y="373.96" width="13.03" height="9.54" style="fill: rgb(166, 166, 166); transform-origin: 138.605px 378.73px; transform: rotate(180deg);" class="animable"></rect></g><g id="elf5pmagzpibe"><rect x="127.19" y="395.48" width="22.94" height="21.95" style="fill: rgb(235, 235, 235); transform-origin: 138.66px 406.455px; transform: rotate(180deg);" class="animable"></rect></g><g id="elahikwm20wa"><rect x="92.9" y="377.35" width="27.39" height="53.36" style="fill: rgb(219, 219, 219); transform-origin: 106.595px 404.03px; transform: rotate(180deg);" class="animable"></rect></g><g id="el7uixldkwn3o"><rect x="101.01" y="369.17" width="11.17" height="8.18" style="fill: rgb(199, 199, 199); transform-origin: 106.595px 373.26px; transform: rotate(180deg);" class="animable"></rect></g><g id="el9yefqc1hwab"><rect x="92.9" y="397.7" width="27.39" height="18.82" style="fill: rgb(199, 199, 199); transform-origin: 106.595px 407.11px; transform: rotate(180deg);" class="animable"></rect></g></g><g id="freepik--Mirrors--inject-66" class="animable" style="transform-origin: 375px 181.71px;"><path d="M155.44,28.61H123.57A56.71,56.71,0,0,0,66.85,85.33V363.42H212.16V85.33A56.72,56.72,0,0,0,155.44,28.61Zm47.9,314.49H75.67V86.31A48.31,48.31,0,0,1,124,38H155a48.31,48.31,0,0,1,48.31,48.31Z" style="fill: rgb(0, 255, 136); transform-origin: 139.505px 196.015px;" id="elf5u4vwz4xuu" class="animable"></path><g id="elx3c6kg8cgl"><path d="M155.44,28.61H123.57A56.71,56.71,0,0,0,66.85,85.33V363.42H212.16V85.33A56.72,56.72,0,0,0,155.44,28.61Zm47.9,314.49H75.67V86.31A48.31,48.31,0,0,1,124,38H155a48.31,48.31,0,0,1,48.31,48.31Z" style="opacity: 0.3; transform-origin: 139.505px 196.015px;" class="animable"></path></g><path d="M155,38H124A48.31,48.31,0,0,0,75.67,86.31V343.1H203.34V86.31A48.31,48.31,0,0,0,155,38Z" style="fill: rgb(255, 255, 255); transform-origin: 139.505px 190.55px;" id="elcgguwobev67" class="animable"></path><g id="elcil0m4gro7r"><g style="opacity: 0.4; transform-origin: 139.5px 190.77px;" class="animable"><path d="M196.8,62,75.67,183.19v-48.4L170.08,40.4A48.41,48.41,0,0,1,196.8,62Z" style="fill: rgb(235, 235, 235); transform-origin: 136.235px 111.795px;" id="elcxij4k9war" class="animable"></path><polygon points="203.33 318.21 203.33 343.1 178.46 343.1 203.33 318.21" style="fill: rgb(235, 235, 235); transform-origin: 190.895px 330.655px;" id="el06t7k4tfneem" class="animable"></polygon><path d="M203.33,86.31v5.62L75.67,219.61v-24.2l125-125A48.11,48.11,0,0,1,203.33,86.31Z" style="fill: rgb(235, 235, 235); transform-origin: 139.5px 145.01px;" id="el35j60hiz7gm" class="animable"></path><polygon points="203.33 226.88 203.33 251.08 111.32 343.1 87.13 343.1 203.33 226.88" style="fill: rgb(235, 235, 235); transform-origin: 145.23px 284.99px;" id="ellst4oquk5o" class="animable"></polygon><path d="M117.47,38.44,76.11,79.8a47,47,0,0,1,2.1-9l30.28-30.28A47,47,0,0,1,117.47,38.44Z" style="fill: rgb(235, 235, 235); transform-origin: 96.79px 59.12px;" id="eltsz67lw368d" class="animable"></path><polygon points="203.33 145.97 203.33 152.84 75.67 280.5 75.67 273.63 203.33 145.97" style="fill: rgb(235, 235, 235); transform-origin: 139.5px 213.235px;" id="elkd6v6j3w5g" class="animable"></polygon></g></g><rect x="134.72" width="9.56" height="28.61" style="fill: rgb(0, 255, 136); transform-origin: 139.5px 14.305px;" id="el0emsn2xmu1b" class="animable"></rect><g id="el3ueymsuty1w"><rect x="134.72" width="9.56" height="28.61" style="opacity: 0.3; transform-origin: 139.5px 14.305px;" class="animable"></rect></g><path d="M390.94,28.61H359.06a56.71,56.71,0,0,0-56.71,56.72V363.42h145.3V85.33A56.71,56.71,0,0,0,390.94,28.61ZM438.83,343.1H311.17V86.31A48.31,48.31,0,0,1,359.47,38h31.06a48.31,48.31,0,0,1,48.3,48.31Z" style="fill: rgb(0, 255, 136); transform-origin: 375px 196.015px;" id="elwhewrjvwsi8" class="animable"></path><g id="ellguyl93ahq"><path d="M390.94,28.61H359.06a56.71,56.71,0,0,0-56.71,56.72V363.42h145.3V85.33A56.71,56.71,0,0,0,390.94,28.61ZM438.83,343.1H311.17V86.31A48.31,48.31,0,0,1,359.47,38h31.06a48.31,48.31,0,0,1,48.3,48.31Z" style="opacity: 0.3; transform-origin: 375px 196.015px;" class="animable"></path></g><path d="M390.53,38H359.47a48.31,48.31,0,0,0-48.3,48.31V343.1H438.83V86.31A48.31,48.31,0,0,0,390.53,38Z" style="fill: rgb(255, 255, 255); transform-origin: 375px 190.55px;" id="elylaw7bicpor" class="animable"></path><g id="el34tklz805hf"><g style="opacity: 0.4; transform-origin: 375px 190.77px;" class="animable"><path d="M432.3,62,311.17,183.19v-48.4L405.58,40.4A48.41,48.41,0,0,1,432.3,62Z" style="fill: rgb(235, 235, 235); transform-origin: 371.735px 111.795px;" id="el7gzvd83pczk" class="animable"></path><polygon points="438.83 318.21 438.83 343.1 413.96 343.1 438.83 318.21" style="fill: rgb(235, 235, 235); transform-origin: 426.395px 330.655px;" id="elfiyx4eqraw" class="animable"></polygon><path d="M438.83,86.31v5.62L311.17,219.61v-24.2l125-125A48.11,48.11,0,0,1,438.83,86.31Z" style="fill: rgb(235, 235, 235); transform-origin: 375px 145.01px;" id="elr8ryr0gzzug" class="animable"></path><polygon points="438.83 226.88 438.83 251.08 346.82 343.1 322.63 343.1 438.83 226.88" style="fill: rgb(235, 235, 235); transform-origin: 380.73px 284.99px;" id="elkpgqiiudfn" class="animable"></polygon><path d="M353,38.44,311.61,79.8a47,47,0,0,1,2.1-9L344,40.54A47,47,0,0,1,353,38.44Z" style="fill: rgb(235, 235, 235); transform-origin: 332.305px 59.12px;" id="elp4oarik0p9" class="animable"></path><polygon points="438.83 145.97 438.83 152.84 311.17 280.5 311.17 273.63 438.83 145.97" style="fill: rgb(235, 235, 235); transform-origin: 375px 213.235px;" id="eltzudfghzsw" class="animable"></polygon></g></g><rect x="370.22" width="9.56" height="28.61" style="fill: rgb(0, 255, 136); transform-origin: 375px 14.305px;" id="ellso2yxufcz" class="animable"></rect><g id="elku8d09g7gog"><rect x="370.22" width="9.56" height="28.61" style="opacity: 0.3; transform-origin: 375px 14.305px;" class="animable"></rect></g><path d="M626.43,28.61H594.56a56.72,56.72,0,0,0-56.72,56.72V363.42H683.15V85.33A56.71,56.71,0,0,0,626.43,28.61Zm47.9,314.49H546.66V86.31A48.31,48.31,0,0,1,595,38h31a48.31,48.31,0,0,1,48.31,48.31Z" style="fill: rgb(0, 255, 136); transform-origin: 610.495px 196.015px;" id="elywoniw5ybzh" class="animable"></path><g id="elnajfvieqrxs"><path d="M626.43,28.61H594.56a56.72,56.72,0,0,0-56.72,56.72V363.42H683.15V85.33A56.71,56.71,0,0,0,626.43,28.61Zm47.9,314.49H546.66V86.31A48.31,48.31,0,0,1,595,38h31a48.31,48.31,0,0,1,48.31,48.31Z" style="opacity: 0.3; transform-origin: 610.495px 196.015px;" class="animable"></path></g><path d="M626,38H595a48.31,48.31,0,0,0-48.31,48.31V343.1H674.33V86.31A48.31,48.31,0,0,0,626,38Z" style="fill: rgb(255, 255, 255); transform-origin: 610.51px 190.55px;" id="elpczmq4j09bn" class="animable"></path><g id="elfcnqqhf3w4n"><g style="opacity: 0.4; transform-origin: 610.5px 190.77px;" class="animable"><path d="M667.8,62,546.67,183.19v-48.4L641.08,40.4A48.41,48.41,0,0,1,667.8,62Z" style="fill: rgb(235, 235, 235); transform-origin: 607.235px 111.795px;" id="el8b1ub3sf8cd" class="animable"></path><polygon points="674.33 318.21 674.33 343.1 649.46 343.1 674.33 318.21" style="fill: rgb(235, 235, 235); transform-origin: 661.895px 330.655px;" id="elkjjdyh90ns" class="animable"></polygon><path d="M674.33,86.31v5.62L546.67,219.61v-24.2l125-125A48.11,48.11,0,0,1,674.33,86.31Z" style="fill: rgb(235, 235, 235); transform-origin: 610.5px 145.01px;" id="elvhvuxakg2zq" class="animable"></path><polygon points="674.33 226.88 674.33 251.08 582.32 343.1 558.13 343.1 674.33 226.88" style="fill: rgb(235, 235, 235); transform-origin: 616.23px 284.99px;" id="el0on2h419s6kf" class="animable"></polygon><path d="M588.47,38.44,547.11,79.8a47,47,0,0,1,2.1-9l30.28-30.28A47,47,0,0,1,588.47,38.44Z" style="fill: rgb(235, 235, 235); transform-origin: 567.79px 59.12px;" id="elogafmy4zlg" class="animable"></path><polygon points="674.33 145.97 674.33 152.84 546.67 280.5 546.67 273.63 674.33 145.97" style="fill: rgb(235, 235, 235); transform-origin: 610.5px 213.235px;" id="el16ln73xgo48" class="animable"></polygon></g></g><rect x="605.71" width="9.56" height="28.61" style="fill: rgb(0, 255, 136); transform-origin: 610.49px 14.305px;" id="eldodrolemdfi" class="animable"></rect><g id="elwm8qja04kmh"><rect x="605.71" width="9.56" height="28.61" style="opacity: 0.3; transform-origin: 610.49px 14.305px;" class="animable"></rect></g><rect x="256.75" width="1" height="16.01" style="fill: rgb(199, 199, 199); transform-origin: 257.25px 8.005px;" id="elskes48d0fro" class="animable"></rect><polygon points="297.91 55.2 294.64 62.39 219.85 62.39 216.59 55.2 248.43 33.16 266.07 33.16 297.91 55.2" style="fill: rgb(235, 235, 235); transform-origin: 257.25px 47.775px;" id="el8oqwd4rib2r" class="animable"></polygon><polygon points="268.28 11.93 266.07 33.16 248.43 33.16 246.22 11.93 268.28 11.93" style="fill: rgb(219, 219, 219); transform-origin: 257.25px 22.545px;" id="el6ucg1mw5q5o" class="animable"></polygon><polygon points="297.91 55.2 294.64 62.39 219.85 62.39 216.59 55.2 297.91 55.2" style="fill: rgb(219, 219, 219); transform-origin: 257.25px 58.795px;" id="el1jmh43691g9" class="animable"></polygon><rect x="492.25" width="1" height="16.01" style="fill: rgb(199, 199, 199); transform-origin: 492.75px 8.005px;" id="elclriyiiju7a" class="animable"></rect><polygon points="533.41 55.2 530.14 62.39 455.35 62.39 452.09 55.2 483.93 33.16 501.57 33.16 533.41 55.2" style="fill: rgb(235, 235, 235); transform-origin: 492.75px 47.775px;" id="ellfnchz45z" class="animable"></polygon><polygon points="503.78 11.93 501.57 33.16 483.93 33.16 481.72 11.93 503.78 11.93" style="fill: rgb(219, 219, 219); transform-origin: 492.75px 22.545px;" id="el7ja5bxfb8lr" class="animable"></polygon><polygon points="533.41 55.2 530.14 62.39 455.35 62.39 452.09 55.2 533.41 55.2" style="fill: rgb(219, 219, 219); transform-origin: 492.75px 58.795px;" id="el03k752ctrm53" class="animable"></polygon></g><g id="freepik--character-3--inject-66" class="animable" style="transform-origin: 555.482px 273.612px;"><path d="M541.38,475h93.11c-18.26-75.47-46.31-183.73-46.31-183.73H504.51S541.23,474.19,541.38,475Z" style="fill: rgb(38, 50, 56); transform-origin: 569.5px 383.135px;" id="elnbagxfaob7k" class="animable"></path><polygon points="582.6 291.23 550.79 475.05 541.38 474.96 504.51 291.23 582.6 291.23" style="fill: rgb(55, 71, 79); transform-origin: 543.555px 383.14px;" id="elzdk4o6kznch" class="animable"></polygon><path d="M457.64,475h90.49L557,360.88l.08-1,2.88-1.59,1.29-.67c3.81-2,6.67-3.33,8.81-4.21.61-.25,1.16-.46,1.65-.64,3.1-1.15,4.09-1.09,4.09-1.09.94-2.41,11.82-57.56,12.38-60.45l0-.11-108.28.11s-22.63,46.58-11.79,84C468.75,377.43,462.74,429.16,457.64,475Z" style="fill: rgb(38, 50, 56); transform-origin: 522.91px 383.06px;" id="el0pzx9u8ivd2" class="animable"></path><path d="M490.77,338.7c2.19-.75,11.59-2.67,13.87-3.57a52.66,52.66,0,0,0,12.21-6.67c3.81-2.86,6.18-6.66,8.18-10.92,1.07-2.27,6.2-14.51,6.52-14.56a.3.3,0,0,1,.31.15c.41.79-1.19,5.34-1.66,6.85-.82,2.63-1.62,5.27-2.55,7.87-1.73,4.88-4.17,9.34-8.28,12.62a42.36,42.36,0,0,1-13.59,7.06,45.25,45.25,0,0,1-7.72,1.78c-2.36.3-5,.71-7.34.13C490.31,339.34,490.46,338.81,490.77,338.7Z" style="fill: rgb(55, 71, 79); transform-origin: 511.198px 321.355px;" id="ellnx3wqn8l1d" class="animable"></path><path d="M598.24,334.79c-.9-.74-5.21-1.4-9.4-9.6A43.76,43.76,0,0,1,585.29,315c-.48-2.11-2-12.37-2.17-12.42s-.11,0-.13.14c-.15.71.82,10.1,1.25,12.5.81,4.52,1.87,8.67,3.62,11.75,4,7.13,9.48,9,10.42,8.48C598.44,335.38,598.37,334.89,598.24,334.79Z" style="fill: rgb(55, 71, 79); transform-origin: 590.673px 319.046px;" id="el565r284ogc2" class="animable"></path><path d="M569.9,353.43c-10.07,3.52-19.79,8.5-29.08,13.72a.33.33,0,0,0,.28.6c9.8-4.27,19.79-8.35,29.34-13.16A.64.64,0,0,0,569.9,353.43Z" style="fill: rgb(55, 71, 79); transform-origin: 555.713px 360.578px;" id="elbla9qqgxxjv" class="animable"></path><path d="M569.9,183.86c25.44,36.86,65.94,122.86,73,135.06,4.79,8.28-38.41,34.53-40.81,28.42-3.08-7.82-42.49-108.6-48.17-154.51C551.27,171.55,561.76,172.07,569.9,183.86Z" style="fill: rgb(173, 99, 89); transform-origin: 598.386px 261.996px;" id="elb0tkaesy0y6" class="animable"></path><path d="M615.57,359.15c-2.12-2.17-3.28-1.07-2.7,4.3s7.42,26.15,0,27.93-16.68-27.68-17-36.7S598.33,331,598.33,331C601.27,336.34,609.66,348.69,615.57,359.15Z" style="fill: rgb(173, 99, 89); transform-origin: 606.072px 361.229px;" id="elp49xcb2xlf" class="animable"></path><path d="M640,313.74c9.91,15.81,18.33,34.18,17,53.62a9.6,9.6,0,0,1-2.31,5.88c-.43,8.72-4.68,11.14-4.68,11.14-2.89,8-7.57,9.88-7.57,9.88s-1.21,6.95-6.13,6.47S629.61,388.54,626,379.8c-8.37-20-24.65-43.3-27.63-48.83Z" style="fill: rgb(173, 99, 89); transform-origin: 627.754px 357.247px;" id="el4egheeqa8s7" class="animable"></path><path d="M633.16,355.49c2.35,5.94,4.81,11.72,6.34,17.95,1.68,6.83,2.14,13.69,2.8,20.66a.17.17,0,0,0,.34,0c.81-12.8-2.93-27.55-9.21-38.71C633.28,355.11,633,355.19,633.16,355.49Z" style="fill: rgb(38, 50, 56); transform-origin: 637.931px 374.744px;" id="el65suputbj2w" class="animable"></path><path d="M644.51,348.68c2,5.91,5.35,16.32,5.33,35.7,0,.07.11.09.12,0a66.22,66.22,0,0,0-5.17-35.81C644.64,348.23,644.38,348.29,644.51,348.68Z" style="fill: rgb(38, 50, 56); transform-origin: 647.511px 366.394px;" id="elzrbwhi3kxh" class="animable"></path><path d="M650.68,345.14c3,10.17,3.53,17,4,28.06,0,.06.11.07.12,0,.79-12.67-.36-17.36-3.79-28.21C650.9,344.61,650.56,344.74,650.68,345.14Z" style="fill: rgb(38, 50, 56); transform-origin: 652.847px 359.006px;" id="el6vbsi68lns" class="animable"></path><path d="M642.46,310.21l-47.41,28S560.47,236,554.44,200.36s8.41-28.43,19.25-12.35C588.51,210,642.46,310.21,642.46,310.21Z" style="fill: rgb(69, 90, 100); transform-origin: 597.739px 256.476px;" id="el2rj79hmqym" class="animable"></path><path d="M594.09,323.39c6.46-3.33,32.4-17.95,37.79-21.49.38-.25.31-.54-.11-.34-19.6,9.53-31.63,18-37.8,21.57C593.82,323.22,593.93,323.48,594.09,323.39Z" style="fill: rgb(38, 50, 56); transform-origin: 613.014px 312.451px;" id="elvssrjb0bskb" class="animable"></path><g id="el0dfa0gl4ow2u"><path d="M554.43,200.37c6,35.59,40.62,137.85,40.62,137.85l9.18-5.44L596.71,227c-9.63-17.1-18.31-32-23-39C562.84,171.92,548.42,164.79,554.43,200.37Z" style="opacity: 0.1; transform-origin: 578.623px 256.491px;" class="animable"></path></g><path d="M568.78,81.21s-5.89-9.49-14.5-9.22S544.21,77.66,539,78.21s-16.23-1.65-22.07,3.22S512.44,97,509.71,100s-11.17,3-13.56,10.78c-2.79,9,2.59,14.84,2.05,19.56-.9,7.85-6.75,13.92-2.94,23.38,4.09,10.18,12.76,10.46,18.24,14,5.25,3.4,5.76,13.94,17.94,15.33s15.82-6.16,23.14-8.54,17.34,3,25.28-1.75,6-12.31,8.31-16.1,8.51-3.59,11.29-10.32-3-13.27-3.28-16c-.55-4.65,2.76-7,2-13.61s-8.46-11.66-9.92-13.76c-3.52-5,.82-14.88-5.07-19.61C575.75,77.39,568.78,81.21,568.78,81.21Z" style="fill: rgb(38, 50, 56); transform-origin: 547.099px 127.602px;" id="elz8rd7bbtb2" class="animable"></path><path d="M513.36,86.84c-.82,3.91-.9,8.56-4.07,11.46-1.75,1.74-4.36,2.49-6.42,3.64-5.69,2.77-9.67,8.11-8.89,14.57.26,3,1.6,5.89,2.83,8.93,1,2.23,1.58,5.24.32,7.65-2.72,6.46-5.39,14-1.87,20.67-3.89-5.54-2.67-13-.48-18.95.27-.79.92-2.66,1.15-3.41.52-1.76-.14-3.45-.87-5.26-2.95-6.07-4.88-13.11-.71-19.31a18.54,18.54,0,0,1,7.82-6.28c5.34-2.24,8.13-2.92,9.8-9.07l1.39-4.64Z" style="fill: rgb(38, 50, 56); transform-origin: 502.653px 120.3px;" id="el4mcmbu3u1yh" class="animable"></path><path d="M573.24,174.76c8.71-1.34,13.11-2.92,14.54-12.41a18.41,18.41,0,0,1,1.33-4.67,7.62,7.62,0,0,1,2.32-2.18c3-2,6.13-3.67,7.69-6.91a13.39,13.39,0,0,0,.38-10.16c-.8-2.26-1.92-4.46-2.91-6.71a51.07,51.07,0,0,1,3.81,6.33,13.86,13.86,0,0,1,.33,11.25c-1.47,3.63-5.18,5.89-8.18,7.86a6.25,6.25,0,0,0-1.72,1.48,19.27,19.27,0,0,0-1.21,4.11c-1.8,9.71-7,12.2-16.38,12Z" style="fill: rgb(38, 50, 56); transform-origin: 587.502px 153.24px;" id="elpmnjcqdg0p" class="animable"></path><path d="M475.91,293l112.78-2.21-1.08-35.23a32.65,32.65,0,0,0,7.18-22.95c-1.21-14.6-35.22-54.55-37.55-56.62-9.35-8.3-24.29-8.5-31.36-2.08C487.86,208.49,475.36,299.26,475.91,293Z" style="fill: rgb(69, 90, 100); transform-origin: 535.386px 231.353px;" id="el4b3400ub2by" class="animable"></path><path d="M551.25,249.93A101.22,101.22,0,0,1,568.44,251c2.84.46,5.64,1.08,8.45,1.77,1.4.34,2.8.63,4.21.91a16.33,16.33,0,0,0,4.45.39c.13,0,.15.22,0,.24a27.69,27.69,0,0,1-4.17.44,26.67,26.67,0,0,1-4.08-.37c-2.88-.44-5.75-1-8.63-1.51-5.8-1-11.61-1.93-17.44-2.4C551,250.45,551,249.93,551.25,249.93Z" style="fill: rgb(38, 50, 56); transform-origin: 568.358px 252.327px;" id="el9beqgkyfw8p" class="animable"></path><path d="M538,257.51A109.58,109.58,0,0,1,552,255c2.35-.26,4.69-.36,7.06-.4,1.13,0,2.26,0,3.39,0s2.49.24,3.73.25c.13,0,.16.23,0,.23-1.17,0-2.33.3-3.5.42l-3.51.33c-2.34.23-4.68.49-7,.69-4.7.41-9.37.87-14,1.47C537.83,258,537.8,257.57,538,257.51Z" style="fill: rgb(38, 50, 56); transform-origin: 552.082px 256.295px;" id="el7jfznrgqv9o" class="animable"></path><path d="M508.32,279.33c-2,4.55-33.5,8.73-34.27,9s-2.68,5.76-2.68,5.76,27.54,4,29.15,4.38-12.46,174.68-12,176.77l146-.14c.64-1.82-37.06-190.62-44-218.2,0,0,9.36-13.13,7-21.12-3.58-11.95-8.59-21.18-9-21.17-1.17,0-51.84-.48-55.9-.21C531.08,214.5,510.32,274.77,508.32,279.33Z" style="fill: rgb(0, 255, 136); transform-origin: 552.949px 344.779px;" id="elgfwesssm00q" class="animable"></path><g id="eltjw2181xcfj"><g style="opacity: 0.6; transform-origin: 552.949px 344.779px;" class="animable"><path d="M508.32,279.33c-2,4.55-33.5,8.73-34.27,9s-2.68,5.76-2.68,5.76,27.54,4,29.15,4.38-12.46,174.68-12,176.77l146-.14c.64-1.82-37.06-190.62-44-218.2,0,0,9.36-13.13,7-21.12-3.58-11.95-8.59-21.18-9-21.17-1.17,0-51.84-.48-55.9-.21C531.08,214.5,510.32,274.77,508.32,279.33Z" id="el9d7taqcqxif" class="animable" style="transform-origin: 552.949px 344.779px;"></path></g></g><path d="M587.64,221.25s-10.24-24.19-25.29-43.93c-2.38-3.12-7.4-4.46-7.4-4.46l26.15,48.36Z" style="fill: rgb(38, 50, 56); transform-origin: 571.295px 197.055px;" id="elgbjztpcvzng" class="animable"></path><path d="M581.81,218.35a1.43,1.43,0,1,0,1.29-1.75A1.56,1.56,0,0,0,581.81,218.35Z" style="fill: rgb(0, 255, 136); transform-origin: 583.214px 218.026px;" id="el9d9pvyjeua" class="animable"></path><g id="eltrnnnfe6ow9"><rect x="534.12" y="318.11" width="23.65" height="12.59" style="fill: rgb(69, 90, 100); transform-origin: 545.945px 324.405px; transform: rotate(6.81deg);" class="animable"></rect></g><polygon points="557.61 332.13 556.89 338.11 546.99 346.06 539.84 345.21 532.08 335.14 532.8 329.16 557.61 332.13" style="fill: rgb(219, 219, 219); transform-origin: 544.845px 337.61px;" id="elqw527057vm" class="animable"></polygon><polygon points="538.01 404.4 534.82 404.02 539.84 345.21 546.99 346.06 538.01 404.4" style="fill: rgb(219, 219, 219); transform-origin: 540.905px 374.805px;" id="eljot75rpnxda" class="animable"></polygon><polygon points="582.37 319.89 564.45 315.9 565.1 313.5 582.55 319.22 582.37 319.89" style="fill: rgb(0, 255, 136); transform-origin: 573.5px 316.695px;" id="el3c2hkkg95z3" class="animable"></polygon><polygon points="581.73 322.29 563.81 318.29 564.45 315.9 581.91 321.61 581.73 322.29" style="fill: rgb(0, 255, 136); transform-origin: 572.86px 319.095px;" id="eleltq0ety0et" class="animable"></polygon><polygon points="581.08 324.68 563.16 320.69 563.81 318.29 581.26 324.01 581.08 324.68" style="fill: rgb(0, 255, 136); transform-origin: 572.21px 321.485px;" id="elq400zejfd1r" class="animable"></polygon><polygon points="580.44 327.08 562.52 323.08 563.16 320.69 580.62 326.4 580.44 327.08" style="fill: rgb(0, 255, 136); transform-origin: 571.57px 323.885px;" id="elfux69o6wdkh" class="animable"></polygon><polygon points="579.79 329.47 561.87 325.48 562.52 323.08 579.98 328.8 579.79 329.47" style="fill: rgb(0, 255, 136); transform-origin: 570.925px 326.275px;" id="elnsxmh9z6uek" class="animable"></polygon><polygon points="579.15 331.87 561.23 327.87 561.87 325.48 579.33 331.19 579.15 331.87" style="fill: rgb(0, 255, 136); transform-origin: 570.28px 328.675px;" id="elc7pe1i0srrm" class="animable"></polygon><polygon points="578.5 334.26 560.58 330.26 561.23 327.87 578.69 333.58 578.5 334.26" style="fill: rgb(0, 255, 136); transform-origin: 569.635px 331.065px;" id="elm5bfqlytvx" class="animable"></polygon><polygon points="577.86 336.65 559.94 332.66 560.58 330.26 578.04 335.98 577.86 336.65" style="fill: rgb(0, 255, 136); transform-origin: 568.99px 333.455px;" id="elmurfxqjgi1e" class="animable"></polygon><polygon points="577.22 339.05 559.29 335.05 559.94 332.66 577.4 338.37 577.22 339.05" style="fill: rgb(0, 255, 136); transform-origin: 568.345px 335.855px;" id="elccc46ibqpe7" class="animable"></polygon><polygon points="576.57 341.44 558.65 337.44 559.29 335.05 576.75 340.76 576.57 341.44" style="fill: rgb(0, 255, 136); transform-origin: 567.7px 338.245px;" id="el1xp39srfsji" class="animable"></polygon><polygon points="575.93 343.83 558.01 339.84 558.65 337.44 576.11 343.16 575.93 343.83" style="fill: rgb(0, 255, 136); transform-origin: 567.06px 340.635px;" id="elwo6czna9koi" class="animable"></polygon><polygon points="575.28 346.23 557.36 342.23 558.01 339.84 575.47 345.55 575.28 346.23" style="fill: rgb(0, 255, 136); transform-origin: 566.415px 343.035px;" id="elqfav0o0ny4i" class="animable"></polygon><polygon points="574.64 348.62 556.72 344.63 557.36 342.23 574.82 347.95 574.64 348.62" style="fill: rgb(0, 255, 136); transform-origin: 565.77px 345.425px;" id="elsy0oh05u8r" class="animable"></polygon><polygon points="573.99 351.02 556.07 347.02 556.72 344.63 574.18 350.34 573.99 351.02" style="fill: rgb(0, 255, 136); transform-origin: 565.125px 347.825px;" id="el510lv4md9hu" class="animable"></polygon><polygon points="573.35 353.41 555.43 349.42 556.07 347.02 573.53 352.74 573.35 353.41" style="fill: rgb(0, 255, 136); transform-origin: 564.48px 350.215px;" id="elsg7njri1u7" class="animable"></polygon><polygon points="572.71 355.81 554.78 351.81 555.43 349.42 572.89 355.13 572.71 355.81" style="fill: rgb(0, 255, 136); transform-origin: 563.835px 352.615px;" id="el5rrqurv8xib" class="animable"></polygon><polygon points="572.06 358.2 554.14 354.2 554.78 351.81 572.24 357.52 572.06 358.2" style="fill: rgb(0, 255, 136); transform-origin: 563.19px 355.005px;" id="elurwaaes3pe" class="animable"></polygon><polygon points="571.41 360.59 553.49 356.6 554.14 354.2 571.6 359.92 571.41 360.59" style="fill: rgb(0, 255, 136); transform-origin: 562.545px 357.395px;" id="elvgwwg377ej" class="animable"></polygon><polygon points="544.55 398.37 541.52 397.55 562 312.67 567.24 314.08 544.55 398.37" style="fill: rgb(0, 255, 136); transform-origin: 554.38px 355.52px;" id="elpu2kg8tn6cm" class="animable"></polygon><g id="eluac1q0aw99m"><rect x="510.5" y="313.66" width="23.65" height="12.59" style="fill: rgb(69, 90, 100); transform-origin: 522.325px 319.955px; transform: rotate(-2.96deg);" class="animable"></rect></g><polygon points="535.13 325.59 535.44 331.61 527.02 341.13 519.83 341.5 510.48 332.9 510.17 326.88 535.13 325.59" style="fill: rgb(0, 255, 136); transform-origin: 522.805px 333.545px;" id="el6vbnzeavfp4" class="animable"></polygon><polygon points="528.08 400.14 524.87 400.31 519.83 341.5 527.02 341.13 528.08 400.14" style="fill: rgb(0, 255, 136); transform-origin: 523.955px 370.72px;" id="el4o5nyeiav6l" class="animable"></polygon><path d="M514.72,356.06s19.92,7.08,48.71,4.63c0,0-1.86,42.67-3.29,45s-18.51,7.48-24.57,7.54-24.78-7.3-27.23-11.18S514.72,356.06,514.72,356.06Z" style="fill: rgb(0, 255, 136); transform-origin: 535.67px 384.645px;" id="elw7vj7qkx39b" class="animable"></path><g id="elvp49fmufag"><path d="M514.72,356.06s19.92,7.08,48.71,4.63c0,0-1.86,42.67-3.29,45s-18.51,7.48-24.57,7.54-24.78-7.3-27.23-11.18S514.72,356.06,514.72,356.06Z" style="opacity: 0.5; transform-origin: 535.67px 384.645px;" class="animable"></path></g><path d="M556.71,251.69a92.48,92.48,0,0,1,15,2.87c2.43.72,4.82,1.57,7.21,2.47,1.19.45,2.38.85,3.58,1.25a14.75,14.75,0,0,0,3.86.85c.11,0,.11.2,0,.2a19.34,19.34,0,0,1-7.25-.88c-2.47-.7-4.92-1.54-7.39-2.27-5-1.48-10-3-15-4C556.41,252.11,556.47,251.66,556.71,251.69Z" style="fill: rgb(38, 50, 56); transform-origin: 571.475px 255.532px;" id="elg6s1rahfxy5" class="animable"></path><path d="M544.23,256.63a100.41,100.41,0,0,1,12.5-.59c2.1,0,4.17.22,6.25.47,1,.11,2,.25,3,.39s2.16.5,3.25.64c.11,0,.11.22,0,.21-1-.11-2.08,0-3.11-.05l-3.12-.12c-2.09-.07-4.17-.11-6.25-.21-4.17-.19-8.32-.32-12.49-.35C544,257,544,256.66,544.23,256.63Z" style="fill: rgb(38, 50, 56); transform-origin: 556.687px 256.889px;" id="elx7f42stx0y" class="animable"></path><path d="M546.32,221.21l-7.55,0s-3.22-25.37-5.11-32.9a149.77,149.77,0,0,0-5.33-16.84,12.68,12.68,0,0,1,6.54-1.72s3.91,12.42,6.11,21.8C543.31,201.53,546.32,221.21,546.32,221.21Z" style="fill: rgb(38, 50, 56); transform-origin: 537.325px 195.479px;" id="elcnway9z9bc" class="animable"></path><path d="M540.3,217a1.89,1.89,0,1,0,2.17-1.55A1.89,1.89,0,0,0,540.3,217Z" style="fill: rgb(0, 255, 136); transform-origin: 542.164px 217.315px;" id="elq1x8ln3um5h" class="animable"></path><path d="M536.43,173c.68,2.18,12.3,15.83,22.41,14.64,3.3-.4,1.94-18.47,1.94-18.47l.2-1.35,2.85-19-23-12.53-3.31-1.64s-.43,5.25-.91,11.79c0,.3,0,.61-.07.93s-.08.72-.1,1.07c-.08,1-.16,2-.22,3,0,.76-.1,1.5-.13,2.29s-.06,1.58-.11,2.38C535.76,164,536.16,172.11,536.43,173Z" style="fill: rgb(173, 99, 89); transform-origin: 549.873px 161.182px;" id="el1vtkq0orzyc" class="animable"></path><path d="M536.65,146.48A38.54,38.54,0,0,0,561,167.86l2.85-19-23-12.53-3.31-1.64S537.13,139.94,536.65,146.48Z" style="fill: rgb(38, 50, 56); transform-origin: 550.25px 151.275px;" id="elvhsbrtensi9" class="animable"></path><path d="M590,120.36c4.1,33.46-15.48,39.69-22.7,40.57-6.55.79-28.95,2.66-36.48-30.19s6.73-45.34,21.62-47.95S585.89,86.91,590,120.36Z" style="fill: rgb(173, 99, 89); transform-origin: 559.651px 121.768px;" id="eljge5njo8t5" class="animable"></path><path d="M578.84,114.47a23.18,23.18,0,0,1-2.37-.22,3.89,3.89,0,0,1-2.38-.69,1.24,1.24,0,0,1-.17-1.49,3,3,0,0,1,2.9-1,4.51,4.51,0,0,1,3,1.25A1.31,1.31,0,0,1,578.84,114.47Z" style="fill: rgb(38, 50, 56); transform-origin: 576.936px 112.739px;" id="el0lzt0id7tne" class="animable"></path><path d="M555.35,116.55a22.21,22.21,0,0,0,2.26-.76,3.9,3.9,0,0,0,2.16-1.21,1.21,1.21,0,0,0-.18-1.48,3,3,0,0,0-3.05-.37,4.48,4.48,0,0,0-2.61,1.89A1.31,1.31,0,0,0,555.35,116.55Z" style="fill: rgb(38, 50, 56); transform-origin: 556.85px 114.527px;" id="eljlozqjtxroc" class="animable"></path><path d="M561.28,124.64c0-.08-.17.14-.16.23.4,2.32.46,5-1.53,6.1-.07,0,0,.15,0,.13C562.14,130.38,562,126.77,561.28,124.64Z" style="fill: rgb(38, 50, 56); transform-origin: 560.647px 127.862px;" id="elma7i82wjk6" class="animable"></path><path d="M558.86,122.5c-3.77.24-3,7.78.47,7.56S562,122.31,558.86,122.5Z" style="fill: rgb(38, 50, 56); transform-origin: 558.978px 126.281px;" id="eljou6ukhcj6g" class="animable"></path><path d="M557.42,123.05c-.61.49-1.18,1.31-2,1.46s-1.68-.54-2.36-1.24c-.07-.07-.13,0-.12.1.12,1.45.83,2.88,2.4,2.94s2.32-1.32,2.53-2.81C557.94,123.22,557.67,122.85,557.42,123.05Z" style="fill: rgb(38, 50, 56); transform-origin: 555.41px 124.653px;" id="elpkcm8eltdf" class="animable"></path><path d="M575.27,122.21c0-.09.2.1.2.19.14,2.35.69,5,2.88,5.59.07,0,.07.14,0,.14C575.73,128,575,124.46,575.27,122.21Z" style="fill: rgb(38, 50, 56); transform-origin: 576.81px 125.158px;" id="elk2hr15h9k7" class="animable"></path><path d="M577.14,119.58c3.73-.62,4.71,6.89,1.25,7.47S574,120.11,577.14,119.58Z" style="fill: rgb(38, 50, 56); transform-origin: 577.874px 123.313px;" id="el31kdsj9cqk" class="animable"></path><path d="M578.77,119.87c.65.32,1.33,1,2,.93s1.33-1,1.76-1.8c0-.09.11,0,.12.07.23,1.43-.05,3-1.39,3.44s-2.31-.69-2.84-2.08C578.36,120.17,578.51,119.74,578.77,119.87Z" style="fill: rgb(38, 50, 56); transform-origin: 580.565px 120.784px;" id="elqc3n3ara0va" class="animable"></path><path d="M564.86,143.08c.59.52,1.19,1.24,2,1.27a6.49,6.49,0,0,0,2.49-.72.08.08,0,0,1,.1.11,3.16,3.16,0,0,1-2.9,1.43,2.51,2.51,0,0,1-2-2C564.6,143.06,564.78,143,564.86,143.08Z" style="fill: rgb(38, 50, 56); transform-origin: 567.004px 144.112px;" id="el12h163vsfpvl" class="animable"></path><path d="M573.64,132.73s1,4,1.14,5.61c0,.15-5.67,1.06-9-2.24-.14-.14.06-.34.22-.26a11.87,11.87,0,0,0,7.33,1.43c.07-.47-1.65-6-1.39-6.05a14.76,14.76,0,0,1,3.82.43c-1.6-7.19-4.33-14.08-5.82-21.27a.23.23,0,0,1,.42-.15c3.38,7,5.4,15.25,7.24,22.64C577.85,133.79,574.33,132.93,573.64,132.73Z" style="fill: rgb(38, 50, 56); transform-origin: 571.673px 124.348px;" id="elzlb56em4q8s" class="animable"></path><path d="M573.37,138a9.59,9.59,0,0,1-3.48,3.4,4.33,4.33,0,0,1-2.6.46c-1.94-.28-2.19-2-2-3.53a10.09,10.09,0,0,1,.59-2.36A12.47,12.47,0,0,0,573.37,138Z" style="fill: rgb(38, 50, 56); transform-origin: 569.304px 138.935px;" id="elpvz85gbmf1i" class="animable"></path><path d="M569.89,141.42a4.33,4.33,0,0,1-2.6.46c-1.94-.28-2.19-2-2-3.53C567.33,138.33,569.49,139.47,569.89,141.42Z" style="fill: rgb(255, 152, 185); transform-origin: 567.564px 140.134px;" id="eluansyqitnek" class="animable"></path><path d="M533.15,129.45c7-.38,6.66-16.49,6.66-16.49s11.78-2.71,16.36-11c0,0-3,7.12-7.52,10.2-.77.52,23.26-2.94,24.76-21.53,0,0,4.32,18.1,15.49,21.37.53.16-2.32-16.55-6-20.3a35.17,35.17,0,0,0-7.16-5.65,34.6,34.6,0,0,0-25.59-5.48c-14.73,2.79-23.77,18.77-24.63,25.2C523.81,118.44,529.81,129.63,533.15,129.45Z" style="fill: rgb(38, 50, 56); transform-origin: 557.092px 104.741px;" id="ellfj8d6zwiml" class="animable"></path><path d="M549.43,112.53c13.14-1.13,23.25-10,23.78-23.46a.3.3,0,0,1,.59,0c2.36,13.56-12,24.19-24.48,23.73C549,112.76,549.12,112.56,549.43,112.53Z" style="fill: rgb(38, 50, 56); transform-origin: 561.594px 100.819px;" id="elyqm90a2wzzs" class="animable"></path><path d="M533.14,128.7c7-4,7.81-11.17,8-18.47,0-.21.37-.24.38,0,.42,7.14-.52,15.93-8.13,19.08A.33.33,0,0,1,533.14,128.7Z" style="fill: rgb(38, 50, 56); transform-origin: 537.277px 119.695px;" id="elm845qnac0hh" class="animable"></path><path d="M573.41,87.86c0-.08.12-.08.14,0,1.92,7.46,2.78,20.17,12.52,21.66a.21.21,0,0,1,0,.41C576.56,109.32,572.72,95.7,573.41,87.86Z" style="fill: rgb(38, 50, 56); transform-origin: 579.783px 98.865px;" id="eldlw8p9pjwt" class="animable"></path><path d="M538.4,130.82s-7.73-10.26-12.4-7.47,1.38,17.84,7.06,19.72a5.69,5.69,0,0,0,7.52-3.33Z" style="fill: rgb(173, 99, 89); transform-origin: 532.457px 133.184px;" id="elkto3hvg1o5o" class="animable"></path><path d="M527.84,127.62c-.09,0-.1.12,0,.15,4,1.45,6.18,5,7.76,8.75-1.22-1.41-2.84-2.16-4.74-.7-.1.08,0,.24.11.21a3.51,3.51,0,0,1,3.9,1.09,16.51,16.51,0,0,1,2,3c.2.35.82.14.68-.26l0-.09C537.37,134.81,533.24,127.93,527.84,127.62Z" style="fill: rgb(38, 50, 56); transform-origin: 532.67px 133.959px;" id="elqtd3cvibhpa" class="animable"></path><path d="M516.68,177.24c-34.42,31.88-64.77,81.1-62.76,109,2,27.59,11.36,24.13,14.08,23.73,16.56-2.45,47.68-78.73,57.18-110.93C533.85,169.68,525.19,169.35,516.68,177.24Z" style="fill: rgb(69, 90, 100); transform-origin: 491.301px 241.588px;" id="elorxbo99v7st" class="animable"></path><path d="M488.37,286.67c1.65-3.63,3.35-7.23,4.94-10.88l4.88-10.9c3.22-7.27,6.5-14.52,9.6-21.85s6.32-14.6,9.37-21.95q2.31-5.49,4.48-11.06c1.51-3.68,2.85-7.42,4.22-11.17a214.15,214.15,0,0,1-7.32,22.78c-2.77,7.48-5.87,14.83-9,22.17-3.26,7.28-6.51,14.55-10,21.71S492.41,279.79,488.37,286.67Z" style="fill: rgb(38, 50, 56); transform-origin: 507.115px 242.765px;" id="elrwdgofyq3zb" class="animable"></path><path d="M522.73,208.42a34.57,34.57,0,0,1,2-3.78c.37-.6.72-1.21,1.11-1.8s.76-1.19,1.21-1.78a10.85,10.85,0,0,1-1.49,4.07A11.76,11.76,0,0,1,522.73,208.42Z" style="fill: rgb(38, 50, 56); transform-origin: 524.89px 204.74px;" id="elakbysgopsgf" class="animable"></path><polygon points="553.29 287.64 550.84 285.87 558.62 273.95 562.16 276.5 553.29 287.64" style="fill: rgb(38, 50, 56); transform-origin: 556.5px 280.795px;" id="elsfvj315nkz" class="animable"></polygon><path d="M591.18,475l-1,0c0-.36,1-36.19-4.26-56.94-2.3-9-9.21-17.88-17.21-28.11-10.62-13.59-22.66-29-28.6-50.32-5.59-20.05,8.66-50.24,13-55.7l.78.62c-4.26,5.38-18.3,35.1-12.81,54.82,5.89,21.13,17.87,36.45,28.43,50,8.07,10.32,15,19.23,17.39,28.48C592.19,438.64,591.19,474.61,591.18,475Z" style="fill: rgb(38, 50, 56); transform-origin: 565.045px 379.465px;" id="elk30voeb2lt" class="animable"></path><path d="M652.48,186.51l-77.12,86.1c-8,10.3-15.81,4-15.81,4s-8-6,0-16.31l64.31-96,3.59,2.25L625.81,169h0l-29.94,46.34L585.67,231.1l-17.18,26.55,3,3.58,4.21,2,21.47-23.22,12.75-13.78,37.48-40.49h0l2-2.18Z" style="fill: rgb(0, 255, 136); transform-origin: 604.237px 221.409px;" id="el360vqjfuzd8" class="animable"></path><polygon points="595.86 215.33 625.8 168.99 625.81 169 595.86 215.33" style="fill: rgb(0, 255, 136); transform-origin: 610.835px 192.16px;" id="elz010p0c3r5h" class="animable"></polygon><polygon points="589.46 230.63 585.67 231.1 595.86 215.33 625.8 168.99 625.81 169 627.47 171.52 589.46 230.63" style="fill: rgb(199, 199, 199); transform-origin: 606.57px 200.045px;" id="elx3ico1f6u1" class="animable"></polygon><polygon points="647.42 185.78 609.94 226.27 647.41 185.77 647.42 185.78" style="fill: rgb(0, 255, 136); transform-origin: 628.68px 206.02px;" id="elsk5jg8jb9bf" class="animable"></polygon><polygon points="647.42 185.78 609.94 226.27 597.19 240.05 596.71 236.26 644.56 184.79 647.41 185.77 647.42 185.78" style="fill: rgb(199, 199, 199); transform-origin: 622.065px 212.42px;" id="elu1h3m4rhrin" class="animable"></polygon><path d="M574.89,267.06a6.25,6.25,0,1,1-1.11-8.76A6.25,6.25,0,0,1,574.89,267.06Z" style="fill: rgb(0, 255, 136); transform-origin: 569.946px 263.236px;" id="el6e7rr4pv02" class="animable"></path><g id="eliatiif0axsd"><path d="M574.89,267.06a6.25,6.25,0,1,1-1.11-8.76A6.25,6.25,0,0,1,574.89,267.06Z" style="opacity: 0.3; transform-origin: 569.946px 263.236px;" class="animable"></path></g><path d="M572.18,265a2.82,2.82,0,1,1-.5-3.95A2.82,2.82,0,0,1,572.18,265Z" style="fill: rgb(0, 255, 136); transform-origin: 569.948px 263.276px;" id="elurx8koum7j" class="animable"></path><path d="M462.9,309.49c12,3.33,28.58-4.13,72.08-27.7,6-3.27-5.58-51.93-12.19-48.78-8.32,4-39.75,21.19-41.89,22.74C462.86,268.81,454.75,307.22,462.9,309.49Z" style="fill: rgb(173, 99, 89); transform-origin: 498.19px 271.553px;" id="el0mgii153ld6c" class="animable"></path><path d="M506.76,245.1s13.42-14.31,22.79-19.64c12.55-7.15,26.32-8.15,32.12-8.22,12.1-.15,41.47,7.86,40.64,16.72-.75,8-30.36-1.68-30.36-1.68s31.82,4.91,29.14,14.4S564.68,243,564.68,243s32.58,5.78,28.27,15.13c-3.26,7.06-34.49-3.19-34.49-3.19s28,5.16,24.93,12.57c-3.36,8.19-32.77.54-32.77.54-10.9,17.54-23.62,21.18-32.75,22.9C515.66,291.33,506.76,245.1,506.76,245.1Z" style="fill: rgb(173, 99, 89); transform-origin: 554.544px 254.095px;" id="elgp2wbs7dn1q" class="animable"></path><path d="M561.06,229.88c3.76.44,7.56.86,11.27,1.63s7.39,1.68,11,2.8A65,65,0,0,1,597,240c-8-3.71-21.21-6.69-24.92-7.47s-7.36-1.73-11.06-2.5C560.93,230,561,229.87,561.06,229.88Z" style="fill: rgb(38, 50, 56); transform-origin: 578.988px 234.94px;" id="el9xjqvq05f4m" class="animable"></path><path d="M558,243.21c4.77.77,9.54,1.36,14.28,2.34s9.11,2.32,13.75,3.62c.36.1.19.26-.18.18-4.68-1.12-9.1-1.79-13.8-2.84s-9.36-2.31-14.08-3.19C557.92,243.31,558,243.2,558,243.21Z" style="fill: rgb(38, 50, 56); transform-origin: 572.091px 246.291px;" id="elth5mp5fscab" class="animable"></path><path d="M553.35,254.18c7.36.81,14.56,3,21.57,5.26.35.11.11.29-.26.2-7.14-1.88-12.72-3.41-21.34-5.2C553.19,254.41,553.2,254.16,553.35,254.18Z" style="fill: rgb(38, 50, 56); transform-origin: 564.16px 256.922px;" id="elepyc8xtsskd" class="animable"></path><path d="M507.61,238.81l8.31,61.66S469.22,316.7,462,309c-7.82-8.33,2.1-39.79,14.26-50.9C481.32,253.49,507.61,238.81,507.61,238.81Z" style="fill: rgb(69, 90, 100); transform-origin: 487.569px 274.941px;" id="eluh16n1uj1jm" class="animable"></path><path d="M507.88,240.77l-.37-2,.15.07c-4.39,2.7-8.79,5.37-13.14,8.1s-8.71,5.46-12.9,8.4a55.23,55.23,0,0,0-6,4.64,43.9,43.9,0,0,0-5.06,5.66,48.7,48.7,0,0,0-7,13.59,40.47,40.47,0,0,1,6.08-14.22,36.52,36.52,0,0,1,5.05-6,59.82,59.82,0,0,1,6.11-4.87c4.27-2.94,8.67-5.63,13.13-8.23s9-5,13.64-7.26l.14-.07v.14Z" style="fill: rgb(38, 50, 56); transform-origin: 485.72px 258.905px;" id="el3lyjhxhtq5f" class="animable"></path><path d="M496.54,251.68c.58,2.92.91,5.91,1.32,8.86s.78,5.91,1.12,8.87c.68,5.92,1.33,11.85,1.9,17.78.15,1.62.3,3.25.43,4.87s.05,3.5.21,5.24c0,.13-.2.15-.22,0-.19-1.45-.59-2.88-.81-4.33s-.43-3-.62-4.51q-.54-4.44-1.07-8.88c-.68-5.92-1.34-11.85-1.83-17.79-.28-3.35-.66-6.73-.74-10.1A.16.16,0,0,1,496.54,251.68Z" style="fill: rgb(38, 50, 56); transform-origin: 498.875px 274.485px;" id="elhh7joj7fswj" class="animable"></path></g><g id="freepik--character-1--inject-66" class="animable" style="transform-origin: 208.225px 277.105px;"><path d="M138.9,475h89.81c.15-.8.31-1.61.47-2.43q1.81-9.06,3.66-18.42c.2-1,.38-1.91.57-2.86.58-2.87,1.15-5.74,1.72-8.63.18-1,.38-1.91.57-2.87.12-.61.24-1.21.37-1.82s.19-1,.28-1.47c.55-2.75,1.09-5.51,1.64-8.25,0,0,0,0,0-.08.11-.51.21-1,.3-1.52h0l1.17-5.89c.26-1.34.53-2.67.79-4,1.51-7.63,3-15.16,4.47-22.49.18-.92.36-1.83.55-2.74.63-3.23,1.27-6.42,1.89-9.56.09-.4.17-.79.24-1.18.35-1.75.69-3.5,1-5.22.18-.9.36-1.8.53-2.68.23-1.2.47-2.37.7-3.54l1.38-6.87c1-5.11,2-10,2.89-14.55.1-.48.19-.95.28-1.42l.39-2c.17-.81.33-1.6.48-2.38.67-3.33,1.29-6.49,1.87-9.42.17-.85.34-1.67.5-2.47q.6-3,1.13-5.7c.1-.48.19-.95.29-1.4.31-1.6.61-3.1.88-4.46.1-.53.21-1.05.31-1.55,1.07-5.38,1.73-8.71,1.87-9.45a.35.35,0,0,0,0-.13v0H179.17v0l0,.14h0v0h0l-.42,1.66c-.13.52-.28,1.15-.47,1.88-3.39,13.77-15.62,63.36-27.88,114.91C146.44,442.64,142.53,459.28,138.9,475Z" style="fill: rgb(235, 148, 129); transform-origin: 200.403px 391.275px;" id="el2jybi5nyjju" class="animable"></path><polygon points="138.9 475.02 232.03 475.02 262.01 307.53 179.18 307.53 138.9 475.02" style="fill: rgb(69, 90, 100); transform-origin: 200.455px 391.275px;" id="el0bv7tx3v4qj9" class="animable"></polygon><g id="el9jxd6y2xu8o"><polygon points="179.17 307.53 221.34 475.02 232.03 475.02 262.01 307.53 179.17 307.53" style="opacity: 0.1; transform-origin: 220.59px 391.275px;" class="animable"></polygon></g><path d="M179.09,307.39l0,.23v0c.53,3.58,4.88,36.07,15.7,66.26.69,1.92,1.39,3.79,2.12,5.61a69.59,69.59,0,0,1,8.41,3.15l2,.87c3.42,1.53,7.64,3.6,12.61,6.34,0,0,0,.31,0,.92,0,.25,0,.55,0,.89.13,2.65,5.05,69.78,5.72,83.28h84.75c-1.31-12.74-2.62-25.26-3.89-37-1.77-16.41-3.45-31.38-4.91-43.48,0,0,14.64-34.68-12.75-87.05Z" style="fill: rgb(235, 148, 129); transform-origin: 244.745px 391.165px;" id="elgokcb0lykbq" class="animable"></path><path d="M223.66,475l94.17-.08-14.44-80.52S308,381.09,306.66,362c-.84-12-9.19-39.12-15.78-54.62H179.09s-.54,36.84,13.17,72l17.1,6.82Z" style="fill: rgb(69, 90, 100); transform-origin: 248.459px 391.19px;" id="elafkw3gg5ev8" class="animable"></path><path d="M209.36,386.21c-.11-.55-1.2-.55-1.13,0,3.48,28.9,14.58,87.64,15.1,88.82a.18.18,0,0,0,.33,0C224.06,473.82,214.06,408.76,209.36,386.21Z" style="fill: rgb(38, 50, 56); transform-origin: 215.949px 430.468px;" id="elrvgd69eei9" class="animable"></path><path d="M192.78,378.24c9.9,3.41,19.45,8.25,28.59,13.32a.32.32,0,0,1-.27.59c-9.63-4.14-19.45-8.1-28.84-12.76A.63.63,0,0,1,192.78,378.24Z" style="fill: rgb(38, 50, 56); transform-origin: 206.726px 385.182px;" id="ellgzzj534m3" class="animable"></path><path d="M173.1,348.43c.9-.74,5.21-1.4,9.41-9.59a44.5,44.5,0,0,0,3.54-10.19c.48-2.11,2-12.37,2.18-12.42s.1,0,.12.14c.15.71-.82,10.1-1.25,12.5-.81,4.52-1.87,8.67-3.62,11.75-4,7.14-9.48,9-10.42,8.48C172.9,349,173,348.53,173.1,348.43Z" style="fill: rgb(38, 50, 56); transform-origin: 180.671px 332.696px;" id="elp4m5opyucsj" class="animable"></path><path d="M199.58,189.12c-17.66,15.89-81.52,80.65-76.16,102.06,5,19.91,23.56,23.25,35.69,12.46,17.6-15.64,45.44-76.58,52.45-95.28C218.23,190.54,216.94,173.52,199.58,189.12Z" style="fill: rgb(235, 148, 129); transform-origin: 169.196px 246.339px;" id="eltlqlm4zuwdo" class="animable"></path><path d="M194.15,255l-53.93-19.34s46.37-42.67,63.54-51.37c19.33-9.79,20.11,2.24,13.86,21.86S194.15,255,194.15,255Z" style="fill: rgb(235, 235, 235); transform-origin: 180.663px 217.907px;" id="elf34lwxcn0r9" class="animable"></path><path d="M151.24,228.77c2,.38,18.87,6.15,22.52,7.48s18.6,6.63,22.25,8.32a.15.15,0,0,1-.08.28c-3.88-1-19-6.28-22.73-7.56s-20.34-7.35-22.07-8.27C151,228.94,151.11,228.75,151.24,228.77Z" style="fill: rgb(38, 50, 56); transform-origin: 173.579px 236.809px;" id="el9qk27te6c8g" class="animable"></path><g id="elifvcj8b34lp"><path d="M217.62,206.12C211.38,225.76,194.16,255,194.16,255l-35.32-12.66,58.83-60.94C222.78,183.75,221.69,193.32,217.62,206.12Z" style="opacity: 0.1; transform-origin: 189.97px 218.2px;" class="animable"></path></g><path d="M294.23,309.79l-121.44-.37,11.64-44.91s-10.13-12.68-6.79-25.43c4.68-17.89,31.27-52.7,33.53-54.63,9.11-7.75,23.62-8.14,30.07-1.51C279.73,222.56,294.23,309.79,294.23,309.79Z" style="fill: rgb(235, 235, 235); transform-origin: 233.51px 244.034px;" id="eluqr6eb0lrfr" class="animable"></path><path d="M156.41,300.17c-5.17,15.62-26.22,8.13-32.09-1.75-13.78-23.2-22.18-57-23.23-81.37-.34-7.84,47.85-21.08,51-13.28C155.32,211.92,166.9,268.47,156.41,300.17Z" style="fill: rgb(235, 148, 129); transform-origin: 130.901px 255.276px;" id="elipqnzxvjmz" class="animable"></path><path d="M158.93,239.21a107.86,107.86,0,0,1,2.55,19.94c.21,6.7.1,13.51-1.5,20.06.05-13.16-1-26.84-1-40Z" style="fill: rgb(38, 50, 56); transform-origin: 160.245px 259.21px;" id="elane7u27fjek" class="animable"></path><path d="M110.28,229.57c5.06,3.78,40.95-17.16,41.79-23.59a25.29,25.29,0,0,0-.61-6.46h0s2.58-14.22,8.92-25.3c5.32-9.3,14.28-22.52,9.38-25.56-7.13-4.46-20.47,10.88-27.59,20.16-2.49-5.85-5.19-10.65-7.78-12.87-8.62-7.37-46.42,26.92-44.26,38.25C92.22,205.12,105.22,225.79,110.28,229.57Z" style="fill: rgb(235, 148, 129); transform-origin: 130.609px 188.944px;" id="elnsr0tfnuzm" class="animable"></path><path d="M147.72,161.78c-9.13,25.56-32,39.36-32,39.36l-13.09-8.78a78.15,78.15,0,0,0,25.42-37.89Z" style="fill: rgb(0, 255, 136); transform-origin: 125.175px 177.805px;" id="elkk40qaha80q" class="animable"></path><g id="elk5ytwp5bfep"><path d="M128.08,154.46a70,70,0,0,1-3.22,8.8l15.67,13a69.93,69.93,0,0,0,7.19-14.46Z" style="opacity: 0.1; transform-origin: 136.29px 165.36px;" class="animable"></path></g><path d="M107.85,106l-12,22.51c38.83,39.95,69.5,51.76,81.77,28.68S162.67,115.88,107.85,106Z" style="fill: rgb(0, 255, 136); transform-origin: 138.188px 137.449px;" id="el34h4f1ctdkf" class="animable"></path><g id="elfn4exalo1uw"><rect x="83.73" y="108.27" width="25.49" height="12.2" style="fill: rgb(0, 255, 136); transform-origin: 96.475px 114.37px; transform: rotate(-61.99deg);" class="animable"></rect></g><g id="elhiuaq1ko52"><rect x="83.73" y="108.27" width="25.49" height="12.2" style="opacity: 0.3; transform-origin: 96.475px 114.37px; transform: rotate(-61.99deg);" class="animable"></rect></g><path d="M87,88.43,69.64,121c.14.07,2.85,1.42,15.47,1.79l12-22.51C89.64,89.93,87,88.48,87,88.43Z" style="fill: rgb(0, 255, 136); transform-origin: 83.375px 105.61px;" id="eloiuu1lx3s1o" class="animable"></path><g id="el28pmjupw7m9"><path d="M87,88.43,69.64,121c.14.07,2.85,1.42,15.47,1.79l12-22.51C89.64,89.93,87,88.48,87,88.43Z" style="opacity: 0.1; transform-origin: 83.375px 105.61px;" class="animable"></path></g><g id="el0qnhhjklur2"><path d="M171.54,129.52,151.87,168c11.53,2.67,20.41-.74,25.79-10.83C183.12,146.87,180.74,137.57,171.54,129.52Z" style="opacity: 0.1; transform-origin: 166.213px 149.197px;" class="animable"></path></g><g id="eltmkflmv1ruf"><path d="M116.11,112.68c19.07,1.82,47.6,9.13,57.53,27-13.81-15.42-38.45-20.72-57.53-27Z" style="fill: rgb(255, 255, 255); opacity: 0.2; transform-origin: 144.875px 126.18px;" class="animable"></path></g><polygon points="102.44 209.38 99.98 207.6 107.77 195.68 111.31 198.24 102.44 209.38" style="fill: rgb(38, 50, 56); transform-origin: 105.645px 202.53px;" id="elr1x20sxlxei" class="animable"></polygon><path d="M153.46,475c0-.35-1.14-35.8-4.27-57-2.95-20-15.59-46.23-27.82-71.58-10.05-20.82-19.54-40.49-24.18-57.16-6.49-23.3-10.89-56.71,5-83.55l.86.51c-15.72,26.54-11.34,59.66-4.91,82.77,4.62,16.58,14.09,36.21,24.12,57,12.26,25.41,24.94,51.69,27.91,71.86,3.13,21.28,4.27,56.78,4.28,57.14Z" style="fill: rgb(38, 50, 56); transform-origin: 122.873px 340.355px;" id="elw7v805wtiuq" class="animable"></path><path d="M133.41,159.45c.75,5.84-6.57,3.38-6.57,3.38s9.68,6.08,8.13,12.41c-1.51,6.09-10.25,2.81-10.88,2.58.51.33,9.26,6.15,7,12.34-2.31,6.44-10.52,1.64-11,1.33.38.46,5.36,6.61,2.61,10.94-4.74,7.43-17.91-8-25-8.2,0,0-1.8,12-1.93,12.37,0,0-12.83-14.38-11.95-24A6.16,6.16,0,0,1,89.06,177s-4.65-4.18-3.06-9.11c.82-2.53,5.6-3.47,5.6-3.47s-3.58-3.5-1.89-7.8c1.33-3.44,5.92-3.84,5.92-3.84s-1.88-5,.62-8C101.29,138.56,131.78,146.93,133.41,159.45Z" style="fill: rgb(235, 148, 129); transform-origin: 109.457px 174.638px;" id="elon1j4fsos2" class="animable"></path><path d="M96.34,152.6a.08.08,0,0,1,0-.16c10.7.31,22.35,3.92,30.89,10.48.28.22,0,.77-.3.59C116.86,158.43,107.5,154.72,96.34,152.6Z" style="fill: rgb(38, 50, 56); transform-origin: 111.803px 157.993px;" id="elmm2ycm36swi" class="animable"></path><path d="M91.47,164.32c-.13,0-.09-.23,0-.22,11,.38,24,4.81,33,13.53.31.3.28.88-.1.56C118,172.84,101.51,166.17,91.47,164.32Z" style="fill: rgb(38, 50, 56); transform-origin: 108.034px 171.192px;" id="elo9u4n1adgts" class="animable"></path><path d="M120.51,192.31c-8.9-8-19.48-12.4-31-15.33-.15,0-.08-.24.06-.24,6-.11,13.16,2.52,18.55,5A31.56,31.56,0,0,1,120.79,192C120.92,192.18,120.7,192.49,120.51,192.31Z" style="fill: rgb(38, 50, 56); transform-origin: 105.128px 184.55px;" id="eltn66w0t1ya" class="animable"></path><path d="M127,162.78c.34.26-.41.46-.08.73,1.38,1.13,9.08,8.66,7.33,12.08-1.41,2.74-6.06,2.75-7.85,2l-4.5-1.76,3.61,3.22a19.74,19.74,0,0,1,4.08,4.94,7.06,7.06,0,0,1,.93,5.7,4,4,0,0,1-4.13,3,12.27,12.27,0,0,1-5.79-2l-4.87-3,3.6,4.42a18.75,18.75,0,0,1,2.52,4,7.73,7.73,0,0,1,.78,4.35,3.63,3.63,0,0,1-2.52,2.89,8,8,0,0,1-4.46-.58,63.54,63.54,0,0,1-8.82-4.55c-1.46-.84-2.92-1.67-4.42-2.44a12,12,0,0,0-4.77-1.57,12.83,12.83,0,0,1,4.55,2c1.42.87,2.8,1.81,4.19,2.75a54,54,0,0,0,8.77,5.12,9.37,9.37,0,0,0,5.33.87,5.16,5.16,0,0,0,3.87-4.13,9.33,9.33,0,0,0-.82-5.42,20.23,20.23,0,0,0-2.73-4.52l-1.27,1.4a14,14,0,0,0,6.81,2.44,5.85,5.85,0,0,0,3.8-1.14,6.58,6.58,0,0,0,2.22-3.22,8.91,8.91,0,0,0-1.18-7.23,21.35,21.35,0,0,0-4.57-5.36l-.88,1.46c2.3.81,7.51,1.37,10.23-2.6C138.76,170.92,128.92,163.93,127,162.78Z" style="fill: rgb(38, 50, 56); transform-origin: 117.049px 183.905px;" id="eljaf5ujnr4cn" class="animable"></path><path d="M126.84,162.83a11.73,11.73,0,0,0,3.62-.08,2.75,2.75,0,0,0,2.15-1.75,5.67,5.67,0,0,0-.23-3.16c-.36-1.13-.79-2.3-1.29-3.49a9.38,9.38,0,0,1,2.48,3,5.53,5.53,0,0,1,.6,4.18,3.89,3.89,0,0,1-1.43,1.86,4.14,4.14,0,0,1-2.13.63A6.29,6.29,0,0,1,126.84,162.83Z" style="fill: rgb(38, 50, 56); transform-origin: 130.59px 159.185px;" id="elz0c4lii21dt" class="animable"></path><path d="M265.14,286.32c2,4.55,33.5,8.73,34.27,9s2.68,5.76,2.68,5.76-27.53,4-29.15,4.38,12.47,167.61,12,169.7l-146-.14c-.64-1.82,37.06-183.55,44-211.13,0,0-9.36-13.14-7-21.12,3.58-12,8.58-21.18,9-21.17,1.16,0,51.83-.48,55.9-.21C242.38,221.49,263.14,281.76,265.14,286.32Z" style="fill: rgb(0, 255, 136); transform-origin: 220.511px 348.234px;" id="elhqr8i1djdvq" class="animable"></path><g id="elszkl2py1u7"><g style="opacity: 0.6; transform-origin: 220.511px 348.234px;" class="animable"><path d="M265.14,286.32c2,4.55,33.5,8.73,34.27,9s2.68,5.76,2.68,5.76-27.53,4-29.15,4.38,12.47,167.61,12,169.7l-146-.14c-.64-1.82,37.06-183.55,44-211.13,0,0-9.36-13.14-7-21.12,3.58-12,8.58-21.18,9-21.17,1.16,0,51.83-.48,55.9-.21C242.38,221.49,263.14,281.76,265.14,286.32Z" id="el0wytj55l62h" class="animable" style="transform-origin: 220.511px 348.234px;"></path></g></g><path d="M185.82,228.24s8.39-20.81,20.39-43.46c1.84-3.47,7.4-4.46,7.4-4.46l-21.25,47.89Z" style="fill: rgb(69, 90, 100); transform-origin: 199.715px 204.28px;" id="elbr3hdgei3du" class="animable"></path><path d="M191.65,225.34a1.42,1.42,0,1,1-1.28-1.75A1.56,1.56,0,0,1,191.65,225.34Z" style="fill: rgb(38, 50, 56); transform-origin: 190.257px 225.006px;" id="elp59nu5hwq0h" class="animable"></path><g id="elshqrlc4qnj"><rect x="215.69" y="325.1" width="23.65" height="12.59" style="fill: rgb(69, 90, 100); transform-origin: 227.515px 331.395px; transform: rotate(173.19deg);" class="animable"></rect></g><polygon points="215.86 339.12 216.57 345.1 226.48 353.05 233.63 352.2 241.38 342.13 240.67 336.15 215.86 339.12" style="fill: rgb(219, 219, 219); transform-origin: 228.62px 344.6px;" id="elm4m4taa1kgo" class="animable"></polygon><polygon points="235.45 411.39 238.64 411.01 233.63 352.2 226.48 353.05 235.45 411.39" style="fill: rgb(219, 219, 219); transform-origin: 232.56px 381.795px;" id="el9w7owg6dma6" class="animable"></polygon><polygon points="191.09 326.88 209.01 322.89 208.37 320.5 190.91 326.21 191.09 326.88" style="fill: rgb(0, 255, 136); transform-origin: 199.96px 323.69px;" id="el6t3jng5v1kx" class="animable"></polygon><polygon points="191.74 329.28 209.66 325.28 209.01 322.89 191.56 328.6 191.74 329.28" style="fill: rgb(0, 255, 136); transform-origin: 200.61px 326.085px;" id="eldwmoeg1sc7" class="animable"></polygon><polygon points="192.38 331.67 210.3 327.68 209.66 325.28 192.2 331 192.38 331.67" style="fill: rgb(0, 255, 136); transform-origin: 201.25px 328.475px;" id="el7cs1ijou1o" class="animable"></polygon><polygon points="193.03 334.07 210.95 330.07 210.3 327.68 192.84 333.39 193.03 334.07" style="fill: rgb(0, 255, 136); transform-origin: 201.895px 330.875px;" id="el3rxwdav0f9s" class="animable"></polygon><polygon points="193.67 336.46 211.59 332.46 210.95 330.07 193.49 335.78 193.67 336.46" style="fill: rgb(0, 255, 136); transform-origin: 202.54px 333.265px;" id="elipsefhthgaq" class="animable"></polygon><polygon points="194.31 338.85 212.24 334.86 211.59 332.46 194.13 338.18 194.31 338.85" style="fill: rgb(0, 255, 136); transform-origin: 203.185px 335.655px;" id="elokd4c7p2v7" class="animable"></polygon><polygon points="194.96 341.25 212.88 337.25 212.24 334.86 194.78 340.57 194.96 341.25" style="fill: rgb(0, 255, 136); transform-origin: 203.83px 338.055px;" id="elbtfwzarotgf" class="animable"></polygon><polygon points="195.6 343.64 213.53 339.65 212.88 337.25 195.42 342.97 195.6 343.64" style="fill: rgb(0, 255, 136); transform-origin: 204.475px 340.445px;" id="eluy2tb5mqiy" class="animable"></polygon><polygon points="196.25 346.04 214.17 342.04 213.53 339.65 196.07 345.36 196.25 346.04" style="fill: rgb(0, 255, 136); transform-origin: 205.12px 342.845px;" id="elnwubjl8rolo" class="animable"></polygon><polygon points="196.89 348.43 214.81 344.43 214.17 342.04 196.71 347.75 196.89 348.43" style="fill: rgb(0, 255, 136); transform-origin: 205.76px 345.235px;" id="elbvd5pw4apd8" class="animable"></polygon><polygon points="197.54 350.82 215.46 346.83 214.81 344.43 197.35 350.15 197.54 350.82" style="fill: rgb(0, 255, 136); transform-origin: 206.405px 347.625px;" id="elnhlpb7sfgph" class="animable"></polygon><polygon points="198.18 353.22 216.1 349.22 215.46 346.83 198 352.54 198.18 353.22" style="fill: rgb(0, 255, 136); transform-origin: 207.05px 350.025px;" id="el4sgn98tkc7y" class="animable"></polygon><polygon points="198.83 355.61 216.75 351.62 216.1 349.22 198.64 354.94 198.83 355.61" style="fill: rgb(0, 255, 136); transform-origin: 207.695px 352.415px;" id="elmhffzieyqh" class="animable"></polygon><polygon points="199.47 358.01 217.39 354.01 216.75 351.62 199.29 357.33 199.47 358.01" style="fill: rgb(0, 255, 136); transform-origin: 208.34px 354.815px;" id="ell80wmpqgzu" class="animable"></polygon><polygon points="200.12 360.4 218.04 356.4 217.39 354.01 199.93 359.72 200.12 360.4" style="fill: rgb(0, 255, 136); transform-origin: 208.985px 357.205px;" id="el47iti1vt3oh" class="animable"></polygon><polygon points="200.76 362.79 218.68 358.8 218.04 356.4 200.58 362.12 200.76 362.79" style="fill: rgb(0, 255, 136); transform-origin: 209.63px 359.595px;" id="elsknbgc2e3e" class="animable"></polygon><polygon points="201.4 365.19 219.33 361.19 218.68 358.8 201.22 364.51 201.4 365.19" style="fill: rgb(0, 255, 136); transform-origin: 210.275px 361.995px;" id="elix8nzl9lb3a" class="animable"></polygon><polygon points="202.05 367.58 219.97 363.59 219.33 361.19 201.87 366.91 202.05 367.58" style="fill: rgb(0, 255, 136); transform-origin: 210.92px 364.385px;" id="elvq8pnjgglx" class="animable"></polygon><polygon points="228.92 405.36 231.94 404.54 211.46 319.66 206.23 321.07 228.92 405.36" style="fill: rgb(0, 255, 136); transform-origin: 219.085px 362.51px;" id="elinmvbqqb1n" class="animable"></polygon><g id="elwiaqk5lji4k"><rect x="239.31" y="320.65" width="23.65" height="12.59" style="fill: rgb(69, 90, 100); transform-origin: 251.135px 326.945px; transform: rotate(-177.04deg);" class="animable"></rect></g><polygon points="238.34 332.58 238.03 338.6 246.44 348.12 253.63 348.49 262.98 339.89 263.29 333.87 238.34 332.58" style="fill: rgb(0, 255, 136); transform-origin: 250.66px 340.535px;" id="el6obk570rbjl" class="animable"></polygon><polygon points="245.39 407.13 248.59 407.3 253.63 348.49 246.44 348.12 245.39 407.13" style="fill: rgb(0, 255, 136); transform-origin: 249.51px 377.71px;" id="elk3z23x2pbd" class="animable"></polygon><path d="M258.75,363.05s-19.93,7.08-48.72,4.63c0,0,1.87,42.67,3.3,45s18.51,7.48,24.56,7.54,24.78-7.3,27.23-11.18S258.75,363.05,258.75,363.05Z" style="fill: rgb(0, 255, 136); transform-origin: 237.79px 391.635px;" id="elj3vaibjjq0n" class="animable"></path><g id="elazf9uweo5y6"><path d="M258.75,363.05s-19.93,7.08-48.72,4.63c0,0,1.87,42.67,3.3,45s18.51,7.48,24.56,7.54,24.78-7.3,27.23-11.18S258.75,363.05,258.75,363.05Z" style="opacity: 0.5; transform-origin: 237.79px 391.635px;" class="animable"></path></g><path d="M216.75,258.68a91.1,91.1,0,0,0-14.95,2.87c-2.44.72-4.83,1.57-7.21,2.47-1.19.45-2.39.85-3.59,1.25a14.67,14.67,0,0,1-3.85.85c-.12,0-.11.2,0,.2a24.34,24.34,0,0,0,3.72-.1,23.94,23.94,0,0,0,3.53-.78c2.48-.7,4.92-1.54,7.39-2.27,5-1.48,10-2.95,15-4C217.05,259.09,217,258.65,216.75,258.68Z" style="fill: rgb(38, 50, 56); transform-origin: 202.013px 262.514px;" id="el1dz8elerm35" class="animable"></path><path d="M229.24,263.62a100.57,100.57,0,0,0-12.51-.59c-2.09,0-4.16.22-6.24.46-1,.12-2,.26-3,.4s-2.16.5-3.25.64c-.12,0-.12.22,0,.21,1-.11,2.08,0,3.12-.05l3.12-.12c2.08-.07,4.16-.11,6.25-.21,4.16-.19,8.31-.32,12.49-.35C229.47,264,229.45,263.65,229.24,263.62Z" style="fill: rgb(38, 50, 56); transform-origin: 216.776px 263.879px;" id="el9jb6tw5pgrr" class="animable"></path><path d="M246.89,214.65c7.71,13.18,45.12,42,45.37,47,0,.78-18.91,17.58-18.8,19.54.45,8,15.55,57.74,22.61,52.58,9.29-6.79,55.12-49.72,50.4-71.89s-93.16-83.42-105.4-82.24C241.07,179.63,240.52,203.75,246.89,214.65Z" style="fill: rgb(235, 148, 129); transform-origin: 293.934px 256.884px;" id="elf8gnxm62txe" class="animable"></path><path d="M293,286.87s-3.37-.51-20.76-6.08c-12-3.86-43.77-5.56-66.18,21.95-8.58,10.54-4.93,21.17,5.93,11.8,7.65-6.6,12.39-11.83,15.49-13.28,0,0-2.88,15.2,3.34,21.65a164.53,164.53,0,0,0,17.44,15.72,36.25,36.25,0,0,0,3.24-3s35.89,8.14,44.58-1.86Z" style="fill: rgb(235, 148, 129); transform-origin: 248.691px 308.691px;" id="elk5upxc9ywsf" class="animable"></path><path d="M260.17,278.94c-6.08,2.62-18.86,8.39-27.68,16.75-9.79,9.29-26.15,29.81-19.22,37,5.08,5.25,12-2,12-2s-5,9.91.65,13.65c5.12,3.4,10.15-2.55,10.15-2.55s-2,6.52,3.59,8.85c6.7,2.81,9.76-11.34,19-14.36C260.75,335.53,260.17,278.94,260.17,278.94Z" style="fill: rgb(235, 148, 129); transform-origin: 235.926px 314.974px;" id="el4bl5mi0fcbf" class="animable"></path><path d="M244,304.4c-5.31,3.41-15.39,14.23-18.82,26-.07.27.09.47.21.24a131.63,131.63,0,0,1,18.7-26.09C244.17,304.44,244.09,304.37,244,304.4Z" style="fill: rgb(38, 50, 56); transform-origin: 234.643px 317.567px;" id="elozaf54fjg1" class="animable"></path><path d="M253.12,314.56c-4.28,3.41-14.17,15-17.24,27-.07.27.11.46.22.23a142.13,142.13,0,0,1,17.11-27.16C253.26,314.59,253.17,314.52,253.12,314.56Z" style="fill: rgb(38, 50, 56); transform-origin: 244.544px 328.221px;" id="ell0v7s2sm1mr" class="animable"></path><path d="M268.8,249.31l50.95-26.2s-51.52-36.26-69.68-42.65c-20.44-7.19-19.65,4.83-10.9,23.48S268.8,249.31,268.8,249.31Z" style="fill: rgb(235, 235, 235); transform-origin: 276.543px 213.83px;" id="elscfl6jd6u2" class="animable"></path><path d="M307.8,217.36c-1.9.63-17.91,8.55-21.35,10.35s-17.58,9-21,11.15a.14.14,0,0,0,.12.25c3.72-1.46,18-8.69,21.55-10.44s19.2-9.94,20.8-11.08C308.08,217.49,307.93,217.32,307.8,217.36Z" style="fill: rgb(38, 50, 56); transform-origin: 286.688px 228.235px;" id="elpldaz3e35y" class="animable"></path><path d="M276.76,245.22c-2.66,1.59-5.35,3.13-8.05,4.65q-3.57-4-6.85-8.24c-6.28-8.18-12.14-16.79-16.47-26.19,5.84,8,12.22,17,17.92,25.13,2,2.79,3.91,5.63,5.84,8.47l-.55-.12c2.71-1.26,5.42-2.51,8.16-3.7Z" style="fill: rgb(38, 50, 56); transform-origin: 261.075px 232.655px;" id="elgcywx4srjy" class="animable"></path><path d="M245,219.92a69.47,69.47,0,0,1,6.92,6,17.2,17.2,0,0,1-6.92-6Z" style="fill: rgb(38, 50, 56); transform-origin: 248.46px 222.92px;" id="elmu109cfn7pl" class="animable"></path><path d="M227.15,228.2l7.55,0s4.76-25.37,6.64-32.9a71.34,71.34,0,0,1,5.95-15.73,16.74,16.74,0,0,0-6.69-1.33,169.29,169.29,0,0,0-6.57,20.3C231.7,208.52,227.15,228.2,227.15,228.2Z" style="fill: rgb(69, 90, 100); transform-origin: 237.22px 203.22px;" id="elwxqs2ytzjz" class="animable"></path><path d="M233.16,223.94a1.88,1.88,0,1,1-2.17-1.55A1.89,1.89,0,0,1,233.16,223.94Z" style="fill: rgb(38, 50, 56); transform-origin: 231.305px 224.244px;" id="elct6lqn0arcf" class="animable"></path><path d="M237.49,183.76c-.78,2.21-13.17,15.71-23.46,14.11-3.35-.54-1.27-19-1.27-19l-.16-1.39L210.41,158l23.94-11.92,3.44-1.55s.25,5.38.49,12.08c0,.31,0,.62,0,.95s.05.74.05,1.09c0,1,.1,2,.12,3,0,.78,0,1.53,0,2.35s0,1.61,0,2.43C238.51,174.54,237.8,182.82,237.49,183.76Z" style="fill: rgb(235, 148, 129); transform-origin: 224.432px 171.266px;" id="el01cwbnxgiurh" class="animable"></path><path d="M238.28,156.62a39.4,39.4,0,0,1-25.68,20.91L210.41,158l23.94-11.92,3.44-1.55S238,149.92,238.28,156.62Z" style="fill: rgb(38, 50, 56); transform-origin: 224.345px 161.03px;" id="el2byh6klm4q6" class="animable"></path><path d="M187.57,125.07C181.15,158.93,200.71,166.6,208,168c6.63,1.24,29.37,4.65,39.25-28.37s-3.84-46.71-18.85-50.37S194,91.2,187.57,125.07Z" style="fill: rgb(235, 148, 129); transform-origin: 218.445px 128.512px;" id="el1gsbs442be5" class="animable"></path><path d="M199,119.7a23.42,23.42,0,0,0,2.37-.2,3.74,3.74,0,0,0,2.38-.66,1.21,1.21,0,0,0,.19-1.48,3,3,0,0,0-2.88-1.08,4.45,4.45,0,0,0-3,1.21A1.31,1.31,0,0,0,199,119.7Z" style="fill: rgb(38, 50, 56); transform-origin: 200.906px 117.966px;" id="elqpcld2aqwtp" class="animable"></path><path d="M222.54,126.09a21,21,0,0,1-2.38-.18,3.82,3.82,0,0,1-2.38-.65,1.22,1.22,0,0,1-.2-1.48,3.05,3.05,0,0,1,2.88-1.1,4.51,4.51,0,0,1,3,1.2A1.31,1.31,0,0,1,222.54,126.09Z" style="fill: rgb(38, 50, 56); transform-origin: 220.617px 124.364px;" id="elgfs56d9c1q4" class="animable"></path><path d="M216.57,131.34c0-.09.17.14.15.23-.43,2.31-.52,5,1.46,6.11.06,0,0,.15,0,.13C215.63,137.06,215.8,133.46,216.57,131.34Z" style="fill: rgb(38, 50, 56); transform-origin: 217.138px 134.566px;" id="el05phhzrivnsj" class="animable"></path><path d="M219,129.23c3.78.28,2.94,7.81-.56,7.55S215.85,129,219,129.23Z" style="fill: rgb(38, 50, 56); transform-origin: 218.836px 133.006px;" id="elv874t1d52h9" class="animable"></path><path d="M220.44,129.79c.61.5,1.17,1.32,2,1.49s1.69-.52,2.37-1.21c.07-.07.13,0,.12.1-.14,1.45-.86,2.87-2.43,2.91s-2.3-1.35-2.5-2.84C219.92,130,220.2,129.59,220.44,129.79Z" style="fill: rgb(38, 50, 56); transform-origin: 222.459px 131.409px;" id="el5s8rzkmzny2" class="animable"></path><path d="M202.37,128.79c0-.09-.19.09-.2.19-.17,2.34-.75,5-2.95,5.55-.06,0-.07.14,0,.13C201.84,134.57,202.59,131,202.37,128.79Z" style="fill: rgb(38, 50, 56); transform-origin: 200.789px 131.713px;" id="eltqi3m20ggy" class="animable"></path><path d="M200.54,126.14c-3.73-.68-4.8,6.82-1.35,7.45S203.66,126.7,200.54,126.14Z" style="fill: rgb(38, 50, 56); transform-origin: 199.752px 129.862px;" id="elfj9sf3ko3gg" class="animable"></path><path d="M198.91,126.41c-.65.31-1.34,1-2.06.89s-1.32-1-1.73-1.81c0-.09-.11,0-.13.06-.24,1.43,0,3,1.36,3.46s2.31-.66,2.86-2C199.31,126.71,199.17,126.28,198.91,126.41Z" style="fill: rgb(38, 50, 56); transform-origin: 197.075px 127.284px;" id="elry5hf1thes" class="animable"></path><path d="M212.75,150.12c-.6.51-1.21,1.23-2.06,1.25a6.28,6.28,0,0,1-2.48-.76.09.09,0,0,0-.11.12,3.15,3.15,0,0,0,2.89,1.46,2.49,2.49,0,0,0,2-1.95C213,150.11,212.83,150.05,212.75,150.12Z" style="fill: rgb(38, 50, 56); transform-origin: 210.542px 151.144px;" id="elq1i0zh6ajk" class="animable"></path><path d="M204.1,139.66s-1,4-1.21,5.6c0,.15,5.66,1.14,9-2.13.14-.14,0-.34-.22-.26a11.88,11.88,0,0,1-7.34,1.34c-.06-.47,1.72-6,1.47-6a14.24,14.24,0,0,0-3.83.38c1.68-7.18,4.51-14,6.09-21.2a.23.23,0,0,0-.42-.16c-3.47,7-5.59,15.19-7.53,22.56C199.88,140.67,203.41,139.86,204.1,139.66Z" style="fill: rgb(38, 50, 56); transform-origin: 206.023px 131.321px;" id="elsyauwg2m1co" class="animable"></path><path d="M204.31,145a9.53,9.53,0,0,0,3.44,3.44,4.27,4.27,0,0,0,2.58.5c1.95-.26,2.22-2,2.06-3.51a10.2,10.2,0,0,0-.55-2.37A12.43,12.43,0,0,1,204.31,145Z" style="fill: rgb(38, 50, 56); transform-origin: 208.369px 146.016px;" id="elcqeub68wz5p" class="animable"></path><path d="M207.75,148.4a4.27,4.27,0,0,0,2.58.5c1.95-.26,2.22-2,2.06-3.51C210.35,145.34,208.17,146.46,207.75,148.4Z" style="fill: rgb(255, 152, 185); transform-origin: 210.089px 147.16px;" id="elbfpnytpdffk" class="animable"></path><path d="M241.61,142.07c1.72-1.84,12.92-11.28,14-16.61.64-3.11-3.64-12.16-3.64-12.16l4.66-2.49-4.12.67,7-9.28-8,5.78s-.49-8.14-1-10.15S238.1,84,238.1,84l3.19,7.19s-22.68-12.09-25.67-12.14C208.11,79,190.8,89.2,190.8,89.2l17.71-1s-17.45,5.22-21.17,8-7.25,17.62-7.25,17.62l13.07-7.64L189,111.77s14.32,3.33,18.24,3.59c8.27.55,27.81-2.94,27.81-2.94a83.32,83.32,0,0,0-1.1,9.47c.14,4,3.12,12.57,3.12,12.57l2.66-6.39Z" style="fill: rgb(69, 90, 100); transform-origin: 219.8px 110.56px;" id="el0ygdkntvmgw" class="animable"></path><path d="M241.39,141.19s8.56-9.94,13.15-6.78-2.61,18.1-8.53,19.65a5.82,5.82,0,0,1-7.45-3.9Z" style="fill: rgb(235, 148, 129); transform-origin: 247.278px 144.077px;" id="elrqvpenheswi" class="animable"></path><path d="M252.37,138.64a.08.08,0,0,1,0,.15c-4.17,1.22-6.65,4.71-8.51,8.41,1.34-1.36,3-2,4.88-.39.1.08,0,.24-.13.2a3.59,3.59,0,0,0-4,.85,17.07,17.07,0,0,0-2.2,3c-.23.33-.85.08-.67-.32l0-.09C242.16,145.33,246.85,138.6,252.37,138.64Z" style="fill: rgb(38, 50, 56); transform-origin: 247.065px 144.826px;" id="el45bn1lij4xo" class="animable"></path></g><g id="freepik--character-2--inject-66" class="animable animator-active" style="transform-origin: 374.995px 270.355px;"><path d="M412.5,283.87l-.32,1.24q-.06.21-.12.48a.74.74,0,0,1,0,.14c0,.13-.07.28-.11.43-.12.44-.25,1-.41,1.54l-.23.92c-.72,2.74-1.73,6.59-3,11.36-.15.56-.29,1.13-.45,1.72a3.29,3.29,0,0,0-.1.37c-1,3.76-2.08,8-3.3,12.68-.26,1-.52,1.95-.77,2.95-1,4-2.16,8.29-3.33,12.8-.07.27-.15.55-.22.83-2.13,8.23-4.46,17.21-6.91,26.66-7.22,27.85-15.5,59.84-23,89.11-.26,1-.51,2-.77,3q-.15.54-.27,1.08c-.22.86-.44,1.72-.65,2.56-.13.48-.25,1-.38,1.45-.19.75-.39,1.5-.58,2.26h0c-.78,3-1.54,6-2.29,8.94v0c-.17.65-.33,1.28-.49,1.92h0c-.59,2.28-1.16,4.52-1.73,6.72H269.49c10.22-36.39,23.75-81.38,35.14-118.56,12.54-41.05,22.48-72.6,22.48-72.6Z" style="fill: rgb(55, 71, 79); transform-origin: 340.995px 379.45px;" id="el3pfqef6478d" class="animable"></path><g id="elbpp09om5rqm"><path d="M329.17,283.88c5.93,45.86,27.37,122.05,35.61,184.43,19.26-75.58,47.73-184.43,47.73-184.43Z" style="opacity: 0.1; transform-origin: 370.84px 376.095px;" class="animable"></path></g><path d="M461.21,475H366.09l-9.6-105.71C351.37,367,343,363,343,363s-5.84-30.81-9.4-52.29v0c-2.21-13.32-4-24.4-4.38-26.48,0-.14,0-.23,0-.29a.28.28,0,0,1,0-.06H439.66s10.75,46.75,11.68,62.65c.3,5.1-1.38,20.4-1.38,20.4Z" style="fill: rgb(55, 71, 79); transform-origin: 395.214px 379.44px;" id="ellihfulho8t" class="animable"></path><path d="M335.48,359.56c12.32,4,24.25,9.72,35.67,15.77a.4.4,0,0,1-.32.73c-12-4.88-24.24-9.53-36-15.06A.78.78,0,0,1,335.48,359.56Z" style="fill: rgb(38, 50, 56); transform-origin: 352.862px 367.786px;" id="el9g5mq0xna9i" class="animable"></path><path d="M438.92,337c-1.1-.37-20.12,1.18-29.24-6.67-8.34-7.17-12.45-28.9-12.62-28.92a.3.3,0,0,0-.32.15c-.26.48.28,17.67,10.28,29.6,7.05,8.41,29.53,7.15,32,6.57C439.39,337.58,439.24,337.05,438.92,337Z" style="fill: rgb(38, 50, 56); transform-origin: 417.966px 319.781px;" id="elyw8qihoxwqr" class="animable"></path><path d="M316.35,326.94c.91-.74,5.22-1.39,9.41-9.59a43.86,43.86,0,0,0,3.54-10.19c.48-2.1,2.05-12.36,2.18-12.41s.1,0,.12.13a124.31,124.31,0,0,1-1.24,12.51c-.81,4.52-1.88,8.66-3.62,11.75-4,7.13-9.49,9-10.42,8.48C316.15,327.54,316.23,327.05,316.35,326.94Z" style="fill: rgb(38, 50, 56); transform-origin: 323.911px 311.216px;" id="el2tg00radt6" class="animable"></path><path d="M313.8,322.15l131.49,4.08c.31-.32-.2-5.54-.43-7.62-.05-.39,6.86-6.18,5.75-12.21-6.44-35.23-31-111.21-50.07-136.58-9.59-12.74-35.4-11.81-45.07,4.61-13.35,22.68-36.07,93.2-43.79,128.9-.9,4.16,3.57,11.65,3.57,13Z" style="fill: rgb(0, 255, 136); transform-origin: 381.145px 243.661px;" id="el8j6byxxwbtc" class="animable"></path><g id="eleafzfrbtax"><path d="M407.46,308.15l-9.21-20.78.37.18a15.76,15.76,0,0,1-10.09-1.91,20.29,20.29,0,0,1-7.27-7.31l-.7-1.1c-.21-.38-.38-.77-.57-1.16l-1.13-2.33c-.57-1.62-1.22-3.22-1.68-4.88s-.89-3.32-1.2-5l-.83-5.08.65.6-32.39-.92.8-.72a55.59,55.59,0,0,1-1.21,8,43.66,43.66,0,0,1-2.38,7.7,26.52,26.52,0,0,1-4.1,7,16.84,16.84,0,0,1-6.63,4.92l.5-.56-4.83,20.93-.7-.9c13.66.43,27.32,1,41.06,1.58Zm0,0-41.08-.84c-13.8-.29-27.69-.57-41.56-1l-.9,0,.2-.88,4.72-21,.09-.4.4-.16a15.26,15.26,0,0,0,5.94-4.48,26.13,26.13,0,0,0,3.85-6.62,43.94,43.94,0,0,0,2.34-7.43,56.28,56.28,0,0,0,1.21-7.7l.06-.75.73,0L375.84,258l.57,0,.08.58.74,5c.27,1.66.73,3.28,1.09,4.92s1,3.19,1.57,4.78l1.05,2.27c.18.38.35.76.54,1.13l.66,1.06a19.28,19.28,0,0,0,6.82,7.1,15.32,15.32,0,0,0,9.52,2l.27,0,.1.22Z" style="opacity: 0.1; transform-origin: 365.69px 282.52px;" class="animable"></path></g><g id="el2jmd6mnyets"><path d="M376.2,212.18c5.44-.12,16.05-.3,21.5-.34.39,6.26.78,12.55,1,18.83a3.31,3.31,0,0,1-.08,1.17,12.89,12.89,0,0,1-3.18,2.62c-2.81,1.74-5.54,3.8-8.78,4.7a1.78,1.78,0,0,1-.67-.11,26.18,26.18,0,0,1-4.62-3,40.35,40.35,0,0,1-5.23-4.54,1.89,1.89,0,0,1-.45-1.1,151.41,151.41,0,0,1,.23-15.66v-.3h.3c4.7,0,14.15.1,18.84.17-4.69.15-14.14.37-18.84.45l.31-.3c-.06,2.6-.11,5.2-.13,7.79s-.08,5.23.15,7.73c0,.6.52.91.91,1.32a47.25,47.25,0,0,0,8.45,6.32,2.6,2.6,0,0,0,.68.23c2.9-1,5.68-2.88,8.31-4.52a16.7,16.7,0,0,0,2.88-2.22c0-2.29-.62-16.56-.71-19.26l.33.32c-5.28,0-15.9-.22-21.18-.33Z" style="opacity: 0.1; transform-origin: 387.153px 225.5px;" class="animable"></path></g><path d="M416.39,270.66c2,4.55,33.5,8.73,34.27,9s2.68,5.76,2.68,5.76-27.54,4-29.15,4.39S440.42,473.06,440,475.15H269.49c-.34-1,17.94-79.23,35.61-151.16,18.82-76.64,36.21-118,36.39-118,0,0,46.53-.48,50.6-.21C393.63,205.83,414.39,266.1,416.39,270.66Z" style="fill: rgb(166, 166, 166); transform-origin: 361.413px 340.424px;" id="ely63mksfb66b" class="animable"></path><path d="M339.73,212.58s5.83-26.33,16.34-45.27c1.91-3.43,7.41-4.46,7.41-4.46l-17.21,49.7Z" style="fill: rgb(69, 90, 100); transform-origin: 351.605px 187.715px;" id="el0jdvbabbn01" class="animable"></path><path d="M345.55,209.68a1.42,1.42,0,1,1-1.28-1.75A1.55,1.55,0,0,1,345.55,209.68Z" style="fill: rgb(38, 50, 56); transform-origin: 344.158px 209.346px;" id="elm6xmiclj56d" class="animable"></path><g id="el8smvrdvth57"><rect x="368.93" y="309.45" width="23.65" height="12.59" style="fill: rgb(69, 90, 100); transform-origin: 380.755px 315.745px; transform: rotate(176.15deg);" class="animable"></rect></g><polygon points="368.71 322.86 369.11 328.87 378.6 337.32 385.78 336.84 394.05 327.19 393.64 321.18 368.71 322.86" style="fill: rgb(219, 219, 219); transform-origin: 381.38px 329.25px;" id="elinswtp0b2ji" class="animable"></polygon><polygon points="384.55 396.04 387.75 395.83 385.78 336.84 378.6 337.32 384.55 396.04" style="fill: rgb(219, 219, 219); transform-origin: 383.175px 366.44px;" id="ellqbfczzu6v" class="animable"></polygon><polygon points="344.61 309.37 362.71 306.3 362.19 303.88 344.46 308.68 344.61 309.37" style="fill: rgb(0, 255, 136); transform-origin: 353.585px 306.625px;" id="elcjs8ub24gno" class="animable"></polygon><polygon points="345.13 311.79 363.23 308.72 362.71 306.3 344.98 311.1 345.13 311.79" style="fill: rgb(0, 255, 136); transform-origin: 354.105px 309.045px;" id="el2n5vnzw5evq" class="animable"></polygon><polygon points="345.65 314.21 363.75 311.15 363.23 308.72 345.5 313.53 345.65 314.21" style="fill: rgb(0, 255, 136); transform-origin: 354.625px 311.465px;" id="elvlonx4xngbe" class="animable"></polygon><polygon points="346.17 316.64 364.27 313.57 363.75 311.15 346.02 315.95 346.17 316.64" style="fill: rgb(0, 255, 136); transform-origin: 355.145px 313.895px;" id="elwib53aazizg" class="animable"></polygon><polygon points="346.69 319.06 364.79 316 364.27 313.57 346.54 318.38 346.69 319.06" style="fill: rgb(0, 255, 136); transform-origin: 355.665px 316.315px;" id="el7oag3kzkskq" class="animable"></polygon><polygon points="347.21 321.49 365.31 318.42 364.79 316 347.06 320.8 347.21 321.49" style="fill: rgb(0, 255, 136); transform-origin: 356.185px 318.745px;" id="elxukgubbjm8" class="animable"></polygon><polygon points="347.73 323.91 365.83 320.84 365.31 318.42 347.58 323.22 347.73 323.91" style="fill: rgb(0, 255, 136); transform-origin: 356.705px 321.165px;" id="elxgx93ovvbmn" class="animable"></polygon><polygon points="348.25 326.33 366.35 323.27 365.83 320.84 348.1 325.65 348.25 326.33" style="fill: rgb(0, 255, 136); transform-origin: 357.225px 323.585px;" id="elco9fzgt5xr" class="animable"></polygon><polygon points="348.77 328.76 366.87 325.69 366.35 323.27 348.62 328.07 348.77 328.76" style="fill: rgb(0, 255, 136); transform-origin: 357.745px 326.015px;" id="elzn73xysgill" class="animable"></polygon><polygon points="349.29 331.18 367.39 328.12 366.87 325.69 349.14 330.5 349.29 331.18" style="fill: rgb(0, 255, 136); transform-origin: 358.265px 328.435px;" id="el0v9p179qfcbd" class="animable"></polygon><polygon points="349.81 333.61 367.91 330.54 367.39 328.12 349.66 332.92 349.81 333.61" style="fill: rgb(0, 255, 136); transform-origin: 358.785px 330.865px;" id="el0mmx6dnnpjy" class="animable"></polygon><polygon points="350.33 336.03 368.43 332.96 367.91 330.54 350.18 335.35 350.33 336.03" style="fill: rgb(0, 255, 136); transform-origin: 359.305px 333.285px;" id="elrx0i6xj580e" class="animable"></polygon><polygon points="350.85 338.45 368.95 335.39 368.43 332.96 350.7 337.77 350.85 338.45" style="fill: rgb(0, 255, 136); transform-origin: 359.825px 335.705px;" id="eltnqsd4bh7qf" class="animable"></polygon><polygon points="351.37 340.88 369.47 337.81 368.95 335.39 351.22 340.19 351.37 340.88" style="fill: rgb(0, 255, 136); transform-origin: 360.345px 338.135px;" id="elw2axv75uhkc" class="animable"></polygon><polygon points="351.89 343.3 369.99 340.24 369.47 337.81 351.74 342.62 351.89 343.3" style="fill: rgb(0, 255, 136); transform-origin: 360.865px 340.555px;" id="el9o5ilep6vb" class="animable"></polygon><polygon points="352.41 345.73 370.51 342.66 369.99 340.24 352.26 345.04 352.41 345.73" style="fill: rgb(0, 255, 136); transform-origin: 361.385px 342.985px;" id="elmw1mbxp2tgr" class="animable"></polygon><polygon points="352.93 348.15 371.03 345.08 370.51 342.66 352.78 347.46 352.93 348.15" style="fill: rgb(0, 255, 136); transform-origin: 361.905px 345.405px;" id="el02pijfa77ky4" class="animable"></polygon><polygon points="353.45 350.57 371.56 347.51 371.03 345.08 353.3 349.89 353.45 350.57" style="fill: rgb(0, 255, 136); transform-origin: 362.43px 347.825px;" id="el8mmszhx3jyl" class="animable"></polygon><polygon points="378.33 389.68 381.4 389.02 365.32 303.2 360.02 304.34 378.33 389.68" style="fill: rgb(0, 255, 136); transform-origin: 370.71px 346.44px;" id="elasddkyqzvi8" class="animable"></polygon><g id="el3mal4wd4cbn"><rect x="392.75" y="306.23" width="23.65" height="12.59" style="fill: rgb(69, 90, 100); transform-origin: 404.575px 312.525px; transform: rotate(-174.08deg);" class="animable"></rect></g><polygon points="391.5 317.49 390.88 323.48 398.79 333.43 405.95 334.17 415.73 326.06 416.35 320.07 391.5 317.49" style="fill: rgb(0, 255, 136); transform-origin: 403.615px 325.83px;" id="elkwkdec4ebuo" class="animable"></polygon><polygon points="394.69 392.31 397.88 392.64 405.95 334.17 398.79 333.43 394.69 392.31" style="fill: rgb(0, 255, 136); transform-origin: 400.32px 363.035px;" id="elo1bdos454m" class="animable"></polygon><path d="M410.31,349s-20.27,6-48.89,2.11c0,0-.34,42.72,1,45.08s18.1,8.42,24.14,8.79,25.13-6,27.77-9.76S410.31,349,410.31,349Z" style="fill: rgb(199, 199, 199); transform-origin: 388.165px 376.998px;" id="elxxh3fcff8wf" class="animable"></path><path d="M368,243a91.42,91.42,0,0,0-15,2.87c-2.43.72-4.82,1.57-7.21,2.47-1.19.45-2.38.85-3.58,1.25a14.75,14.75,0,0,1-3.86.85c-.11,0-.11.2,0,.2a19.34,19.34,0,0,0,7.25-.88c2.47-.7,4.92-1.54,7.39-2.27,5-1.48,10-3,15-4C368.3,243.43,368.24,243,368,243Z" style="fill: rgb(38, 50, 56); transform-origin: 353.235px 246.843px;" id="ellmu3srhwcnf" class="animable"></path><path d="M380.49,248a100.66,100.66,0,0,0-12.51-.59c-2.09,0-4.17.22-6.25.46-1,.12-2,.25-3,.4s-2.16.5-3.25.64c-.11,0-.11.22,0,.2,1-.1,2.08,0,3.11,0l3.12-.12c2.09-.07,4.17-.12,6.25-.21,4.17-.19,8.32-.33,12.49-.35C380.72,248.35,380.7,248,380.49,248Z" style="fill: rgb(38, 50, 56); transform-origin: 368.024px 248.255px;" id="elm1y6xh15nm" class="animable"></path><path d="M358,172.2c-3.95,9.07-20,43.59-28.32,66.5-5.56,15.37-8,28.36-9.19,31.75,0,0,37.54-10.32,45.89-10,12.84.51,32.31,28.21,27.11,31.36-8.17,4.95-46.8,21.32-77.29,25.68-16.57,2.37-46.67-19.84-43.51-36.35,4.42-23.17,50.44-85.6,67.21-102.35C348.62,170.1,362.83,161.14,358,172.2Z" style="fill: rgb(255, 196, 192); transform-origin: 333.406px 242.363px;" id="el4sw3r1um2wg" class="animable"></path><path d="M270.23,286c.07,16.83,19.92,34.15,32.07,35.41,13.38,1.39,43.33,2.11,63.89-2.33,5.1-1.1,8.56-8.68,12.25-10.87.87-.51,8.64-3.81,8.64-3.81l-21.94-47.05L356,260c-2.79.82-7-1.47-10.36-.5-12,3.52-24.47,10.71-25.08,10.92v0c.43-1.24,12.69-40.52,18-53.48.28-.71.61-1.45.91-2.22,1.52-3.59,3.59-8.32,5.87-13.43l0,0,3.91-8.71v0c5.73-12.65,12.57-27.44,12.57-27.44-7.27.88-14.56,4.37-26.79,16.17S270.13,258.21,270.23,286Z" style="fill: rgb(0, 255, 136); transform-origin: 328.655px 243.807px;" id="eluif1o2adwfm" class="animable"></path><path d="M371.74,294.67c-1.61-3.41-3.24-6.82-4.86-10.23s-3.19-6.67-4.8-10A112,112,0,0,1,357.32,264c0-.07.07-.12.11-.06a84.58,84.58,0,0,1,5.44,9.53c1.74,3.35,3.43,6.73,5.1,10.12s3.21,6.67,4.76,10A84.26,84.26,0,0,1,377,304.28c.05.15-.16.28-.25.14A102,102,0,0,1,371.74,294.67Z" style="fill: rgb(38, 50, 56); transform-origin: 367.164px 284.197px;" id="el7zym2mwaj0b" class="animable"></path><g id="eli4znrqmo2vp"><path d="M307.1,276.84l13.4-6.39h0v0c.43-1.24,12.69-40.52,18-53.48.28-.71.61-1.45.91-2.22,1.52-3.59,3.59-8.32,5.87-13.43Z" style="opacity: 0.1; transform-origin: 326.19px 239.08px;" class="animable"></path></g><path d="M296,282.15a109.91,109.91,0,0,1,11.83-6.9c2-1,4.07-2,6.19-2.81s4.6-1.51,6.83-2.4a.14.14,0,0,1,.11.26c-2.08.84-4.08,2-6.1,3s-4.21,2-6.33,3c-4.17,1.93-8.28,4-12.43,6C296,282.37,295.92,282.21,296,282.15Z" style="fill: rgb(38, 50, 56); transform-origin: 308.506px 276.173px;" id="el9gore0nbost" class="animable"></path><path d="M383.55,296.81c1.37,2.55,2.66,5.15,4,7.72l-.32.16c-2.44,1.18-6.06,2.85-8.55,4l.24-.19c-2.68,3.81-5.69,7.4-9.67,9.93a15.53,15.53,0,0,1-6.76,2.05,309.47,309.47,0,0,1-34.16,1.95c6.53-.68,13.83-1.31,20.41-2,5.6-.58,11.31-.92,16.82-2,3.21-.83,5.7-3.17,8-5.47a53.39,53.39,0,0,0,4.49-5.25l.13-.05c2.55-1.05,6.2-2.6,8.74-3.61l-.17.46c-1.08-2.58-2.19-5.13-3.23-7.72Z" style="fill: rgb(38, 50, 56); transform-origin: 357.94px 309.61px;" id="eldnezn73f9yd" class="animable"></path><g id="elxwppx1ypsp8"><path d="M354.16,171.27c-.21,6.77,1.83,15.07,9.12,17.15,10.53,2.55,25.24-11,29.23-20.09-3.42,9.73-17.55,23-28.54,21.18-8.31-1.74-10.67-10.81-9.81-18.24Z" style="opacity: 0.1; transform-origin: 373.252px 179.004px;" class="animable"></path></g><path d="M361.08,182.64c7.21,4.17,21.82-5.46,27.72-14.89.4-.64,1-27.16,1.28-32.51.07-1.09-34,6.19-34,6.19s2.64,11.4,2,20.72a12.4,12.4,0,0,1-.36,2.18c0,.1-.05.22-.07.36C356.76,168.81,357.38,180.5,361.08,182.64Z" style="fill: rgb(255, 196, 192); transform-origin: 373.08px 159.384px;" id="elokwi4xe18of" class="animable"></path><path d="M357.68,164.69a22.06,22.06,0,0,0,3.44.38c17.61.64,25.18-20.52,27.68-29.87-6.21.56-32.74,6.22-32.74,6.22s2.66,11.4,2,20.73a11.07,11.07,0,0,1-.34,2.17A2.33,2.33,0,0,0,357.68,164.69Z" style="fill: rgb(38, 50, 56); transform-origin: 372.43px 150.142px;" id="elc856kt55lih" class="animable"></path><path d="M396.62,93.71c3.55,12-3,46.5-11.61,54.14-12.43,11.07-32.63,12-42-2.92-9.08-14.45.31-59.28,9.87-66.2C367,68.52,391.36,76,396.62,93.71Z" style="fill: rgb(255, 196, 192); transform-origin: 368.464px 115.131px;" id="elzhgchsp6em8" class="animable"></path><path d="M364.55,115.58c0-.08.16.14.14.24-.51,2.31-.7,5.05,1.26,6.21.06,0,0,.15,0,.13C363.41,121.32,363.7,117.69,364.55,115.58Z" style="fill: rgb(38, 50, 56); transform-origin: 364.96px 118.862px;" id="el5jqovmjkjyb" class="animable"></path><path d="M367.08,113.54c3.79.41,2.69,8-.82,7.59S363.9,113.19,367.08,113.54Z" style="fill: rgb(38, 50, 56); transform-origin: 366.781px 117.337px;" id="elylfs4lqu4l" class="animable"></path><path d="M350.92,113.49c0-.09-.2.08-.21.18-.26,2.35-1,5-3.2,5.47-.07,0-.08.13,0,.13C350.15,119.29,351.05,115.76,350.92,113.49Z" style="fill: rgb(38, 50, 56); transform-origin: 349.193px 116.367px;" id="eluffjfi4xj3n" class="animable"></path><path d="M349.19,110.74c-3.73-.84-5.12,6.67-1.67,7.45S352.31,111.44,349.19,110.74Z" style="fill: rgb(38, 50, 56); transform-origin: 348.244px 114.461px;" id="el1tknh7d24d3" class="animable"></path><path d="M370.57,110.52a30.57,30.57,0,0,1-2.78-1.46,5.09,5.09,0,0,1-2.55-2,1.62,1.62,0,0,1,.54-1.9c1.28-.84,2.75-.46,4.05.18a5.87,5.87,0,0,1,3,3A1.72,1.72,0,0,1,370.57,110.52Z" style="fill: rgb(38, 50, 56); transform-origin: 369.029px 107.66px;" id="eltzyp0jhyxzh" class="animable"></path><path d="M346.82,106.51a29.77,29.77,0,0,0,3.12-.35,5,5,0,0,0,3.11-1,1.6,1.6,0,0,0,.19-2c-.88-1.25-2.39-1.44-3.83-1.32a5.86,5.86,0,0,0-3.88,1.7A1.73,1.73,0,0,0,346.82,106.51Z" style="fill: rgb(38, 50, 56); transform-origin: 349.255px 104.161px;" id="elhiv6a7s2zl8" class="animable"></path><path d="M363,137.16c-.64.47-1.31,1.14-2.17,1.09a6.17,6.17,0,0,1-2.43-1,.08.08,0,0,0-.12.11,3.16,3.16,0,0,0,2.79,1.7,2.52,2.52,0,0,0,2.14-1.8C363.22,137.17,363,137.09,363,137.16Z" style="fill: rgb(38, 50, 56); transform-origin: 360.734px 138.097px;" id="elmqrh0kmxk1t" class="animable"></path><path d="M361.51,129.79a8.05,8.05,0,0,1-5.84,2.77,10.47,10.47,0,0,1-2.89-.28,3,3,0,0,1-.53-.15,4.07,4.07,0,0,1-.51-.15.6.6,0,0,1-.39-.59v0a2.1,2.1,0,0,1,.06-.24h0l0-.21c.21-1.81.79-4.53.79-4.53-.71.24-4.29,1.26-4.1.32,1.6-7.73,3.39-16.32,6.61-23.68a.22.22,0,0,1,.42.13c-1.24,7.49-3.8,14.71-5.17,22.21a14,14,0,0,1,3.93-.59c.24.11-1.21,5.23-1.24,6a.62.62,0,0,0,0,.09c3,.83,5.39.24,8.62-1.36C361.52,129.44,361.68,129.63,361.51,129.79Z" style="fill: rgb(38, 50, 56); transform-origin: 354.837px 117.736px;" id="el3qlspnme5hr" class="animable"></path><path d="M354,131.52a9.64,9.64,0,0,0,3.36,3.49,4.35,4.35,0,0,0,2.56.53c1.94-.22,2.24-1.92,2.11-3.44a10.15,10.15,0,0,0-.51-2.37A12.43,12.43,0,0,1,354,131.52Z" style="fill: rgb(38, 50, 56); transform-origin: 358.028px 132.646px;" id="elurboa7js9k" class="animable"></path><path d="M357.34,135a4.35,4.35,0,0,0,2.56.53c1.94-.22,2.24-1.92,2.11-3.44C360,132,357.8,133.08,357.34,135Z" style="fill: rgb(255, 152, 185); transform-origin: 359.688px 133.818px;" id="elo24mj0sisrj" class="animable"></path><g id="elc73cnyc3rvk"><path d="M393.45,130.26c-.55-1-8.31-15.43-10.85-22.77-1.4-4,2.29-18.59,2.38-18.94A10.52,10.52,0,0,1,390.07,83a25,25,0,0,1,6.55,10.74C398.83,101.15,397.12,117.29,393.45,130.26Z" style="fill: rgb(38, 50, 56); opacity: 0.3; transform-origin: 389.944px 106.63px;" class="animable"></path></g><path d="M389,121.82s8.12-11,13.11-8-1.34,19-7.35,21a6.06,6.06,0,0,1-8-3.48Z" style="fill: rgb(255, 196, 192); transform-origin: 395.336px 124.292px;" id="el135g0uxh10fi" class="animable"></path><path d="M400.19,118.34c.1,0,.11.13,0,.16-4.22,1.57-6.53,5.38-8.18,9.35,1.29-1.51,3-2.31,5-.77.11.08,0,.25-.12.22a3.72,3.72,0,0,0-4.13,1.18,18.11,18.11,0,0,0-2.06,3.26c-.21.37-.87.15-.72-.28l0-.09C390.12,126.05,394.47,118.71,400.19,118.34Z" style="fill: rgb(38, 50, 56); transform-origin: 395.113px 125.134px;" id="elyc15o7ayd7" class="animable"></path><path d="M395.31,87.77c3.16,4.8-11.73,7.2-14,7s1.81-4,1.81-4S373.9,97,368.62,97.35a35.67,35.67,0,0,1-10.86-1.41l8.46-4.88S350.9,97.25,343,96.28a22.93,22.93,0,0,0-13.7,2.58s3.63-17.61,9.55-21.65a53.35,53.35,0,0,1,12.5-6.12L341.25,70s9.11-3.23,14.95-3,17.16,4.42,17.16,4.42l-6.31-5.86s7.51.13,12.39,3.1,11.9,9.87,11.9,9.87l-4.07-5.94s5,1.42,6.61,4.63S395.31,87.77,395.31,87.77Z" style="fill: rgb(38, 50, 56); transform-origin: 362.524px 82.21px;" id="elr1wq8bovla" class="animable"></path><path d="M370.14,133.4a11.83,11.83,0,0,0-7.06-6.25,18.53,18.53,0,0,0-10.65-1c-4.72,1-6.2,3.89-7.07,9.2s-.68,13.65.9,15.77,8.54,6.63,14.08,6.82,10.73-1.93,12.42-3.19C375.41,152.77,371.55,136.54,370.14,133.4Zm-4.75,8.75c-.93.63-3.68,1.34-6.75,1.19s-7.1-1.39-8-2.5-1-6.27-.57-9,1.22-4.21,3.82-4.7a10.82,10.82,0,0,1,5.88.61,6.75,6.75,0,0,1,4,3.3C364.54,132.69,366.83,141.15,365.39,142.15Z" style="fill: rgb(38, 50, 56); transform-origin: 359.256px 141.868px;" id="ele5jyw6ba5a" class="animable"></path><path d="M302,278.13c4.2-1,21.58-3.2,24.54-.25,17.92,17.91,37,8.62,40.94,10.91C398,306.46,435,323.48,449.54,323.65c22.08.25,30.93-18.25,27.31-35.77-7.15-34.63-46.36-93.94-67.43-111.93-11.17-9.53-17.59-3.53-13,12.05,2.69,9.14,7.4,22.72,12.21,36.05,4.26,11.88,15.54,42.23,15.74,42.94v0s0,.06,0,.08-.07.1-.24.05c-1-.19-27.06-12.57-53.3-19.42-9.25-2.41-28.52-5.86-35.44-2.8-4.11,1.83-4.19,4.28-4.19,4.28s-5.21-.09-8.69,2.76a7.69,7.69,0,0,0-2.55,4.87s-4.22,1.37-6.22,3.33a12.18,12.18,0,0,0-3.73,7.13A19.54,19.54,0,0,0,302,278.13Z" style="fill: rgb(255, 196, 192); transform-origin: 389.818px 247.514px;" id="elycrzhu8fwb" class="animable"></path><path d="M339,248.49a51.75,51.75,0,0,1,8.23.95c.19,0,.18.32,0,.3-2.68-.31-5.4-.38-8.1-.47s-5.41-.17-8.1-.12a0,0,0,0,1,0,0A44.55,44.55,0,0,1,339,248.49Z" style="fill: rgb(38, 50, 56); transform-origin: 339.199px 249.115px;" id="elmra608v4bp" class="animable"></path><path d="M320.06,256.83c5.8-1.58,10.42-2.44,17.68-1.51.24,0,.22.38,0,.36-6.91-.45-11.42.24-17.65,1.27C320,257,320,256.84,320.06,256.83Z" style="fill: rgb(38, 50, 56); transform-origin: 328.965px 255.948px;" id="elzx3zb5ryf" class="animable"></path><path d="M310,267.27a41.34,41.34,0,0,1,17.7-1.74c.24,0,.29.37,0,.38a101.62,101.62,0,0,0-17.67,1.63C309.94,267.57,309.88,267.31,310,267.27Z" style="fill: rgb(38, 50, 56); transform-origin: 318.916px 266.39px;" id="elfjiz446blk" class="animable"></path><path d="M368.6,247.19a72.76,72.76,0,0,1,7.69,1.69c2.69.65,5.38,1.37,8,2.22a156.18,156.18,0,0,1,15.46,6,.16.16,0,1,1-.11.31c-5.15-1.76-10.35-3.42-15.56-5-2.56-.78-5.1-1.62-7.65-2.44s-5.34-1.47-7.91-2.42A.16.16,0,0,1,368.6,247.19Z" style="fill: rgb(38, 50, 56); transform-origin: 384.118px 252.303px;" id="ele69zh81roxk" class="animable"></path><path d="M390.71,253.34a59.22,59.22,0,0,1-7.16-2.28L355.41,298.6l9.24,4.87s7.64,10.64,11.64,12c23.6,8.26,54.06,11.56,70.6,11.31,15.63-.24,33.26-10.55,33.61-30.06.51-27.42-42.42-96.86-71.17-123.09-11.5-10.5-24.43-14.53-16,14.79,5.84,20.38,26.15,75.37,26.15,75.37s-9.2-7.45-18.06-10.73C397.7,251.74,392.45,253.77,390.71,253.34Z" style="fill: rgb(0, 255, 136); transform-origin: 417.957px 246.302px;" id="ell8c76f15lcs" class="animable"></path><path d="M397.05,207.24c1.15,1.87,2.31,3.72,3.29,5.68l.13.28q-2.18-6.69-4.14-13.43c-.08-.27.37-.42.48-.15,6.45,16.49,12.44,33.18,18.24,49.91,1.63,4.68,3.05,9.41,4.53,14.13.05.17-.22.25-.29.1-1.77-4.06-3.56-8.08-5.18-12.21s-3.13-8.29-4.66-12.45c-2.67-7.27-5.2-14.57-7.65-21.92-.77-1.28-1.54-2.57-2.27-3.88-1.06-1.91-1.92-3.91-2.81-5.9A.18.18,0,0,1,397.05,207.24Z" style="fill: rgb(38, 50, 56); transform-origin: 407.953px 231.658px;" id="el7vgiozyerjb" class="animable"></path><path d="M374.19,287.64c2-3.41,4-6.84,6-10.26s3.92-6.71,5.86-10.08a117.8,117.8,0,0,1,6.3-10.31.07.07,0,0,1,.12.06,89.34,89.34,0,0,1-5.08,10.35c-1.89,3.49-3.83,7-5.79,10.41s-3.91,6.73-5.92,10.06a89.55,89.55,0,0,1-6.77,10c-.1.13-.34,0-.27-.14A109,109,0,0,1,374.19,287.64Z" style="fill: rgb(38, 50, 56); transform-origin: 380.549px 277.446px;" id="elh5fdvp9wjba" class="animable"></path><path d="M361.27,288.71c-1.59,2.92-3.89,7.15-5.53,10.09l-.15-.54,9.33,4.7c2.8,3.63,5.6,7.48,9.25,10.36a9.6,9.6,0,0,0,1.55,1c4.64,2.17,9.91,3.43,14.89,4.77,10.22,2.54,20.5,5.06,31,6.21-13.22-.49-26.29-3.38-39-6.88-3.78-1.19-8-2.31-10.85-5.31a51.45,51.45,0,0,1-7.57-9.32l.21.19-9.14-5-.37-.21c1.93-3,4.46-7.12,6.41-10Z" style="fill: rgb(38, 50, 56); transform-origin: 388.25px 307.005px;" id="el1wlnq9q1uca" class="animable"></path><path d="M383.55,251.06c2.43.61,4.84,1.3,7.27,2,3-.78,8.21-1.38,11.85-.17a108.57,108.57,0,0,1,15.24,8.48,239.41,239.41,0,0,1,23.66,17.11c-7.21-4.78-17.23-11.37-24.45-15.87-4.65-2.84-9.23-5.8-14.1-8.16a13.68,13.68,0,0,0-1.6-.64c-3.47-.92-7.21-.59-10.74-.09-2.38-.87-4.77-1.71-7.13-2.62Z" style="fill: rgb(38, 50, 56); transform-origin: 412.56px 264.77px;" id="elb5fg0yadtv" class="animable"></path><path d="M378.4,212.54l7.54,0s3.25-23.78,5.13-31.31a151,151,0,0,1,5.34-16.84,12.68,12.68,0,0,0-6.54-1.72s-3.92,12.42-6.11,21.8C381.43,194.45,378.4,212.54,378.4,212.54Z" style="fill: rgb(69, 90, 100); transform-origin: 387.405px 187.604px;" id="el3qx2vtfjhrs" class="animable"></path><path d="M384.41,208.28a1.89,1.89,0,1,1-2.17-1.56A1.89,1.89,0,0,1,384.41,208.28Z" style="fill: rgb(38, 50, 56); transform-origin: 382.545px 208.585px;" id="elqs3f8936m" class="animable"></path><path d="M435.65,250.36c2.45-7.79-3.69-12.49-4.32-13.31s-.63-1.14-.47-1.72a35.89,35.89,0,0,0,1.07-14.55l18.25-58.7-1.08-.29c-14.27,20-23.91,52.41-23.91,52.41,1.73,2.06,3.82,7.68,3.56,11.8s-1.63,9.74-2.67,10.56c-.86.68-5.49,2.34-8.26,7-.2.34-1-.08-1.35.22a8.88,8.88,0,0,0-1,3.75c.09.33.78.21,1.1.85,0,3.89,2.11,6.18,4.41,8C425,259.53,433.23,258.05,435.65,250.36Zm-5.18,2.9c-2.37,1.87-7,2.86-9.87-1.2-2.14-3-1.49-6.87,1.69-9.74a6.52,6.52,0,0,1,9.94.78C434.71,246.37,433.08,251.2,430.47,253.26Z" style="fill: rgb(55, 71, 79); transform-origin: 432.825px 209.86px;" id="el0nt5j1bd2yq" class="animable"></path><path d="M427.78,219.54l6.31-5.69,6.4-20.61-11.64,10c-2.35,6.54-3.66,10.92-3.66,10.92A17,17,0,0,1,427.78,219.54Z" style="fill: rgb(38, 50, 56); transform-origin: 432.84px 206.39px;" id="el6gwwdfgpz3f" class="animable"></path><path d="M448.84,163.08c-1.29,1.9-2.47,3.88-3.64,5.85s-2.26,4-3.33,6q-3.21,6.09-6,12.41c-1.82,4.22-3.56,8.48-5.06,12.82-.38,1.09-.78,2.16-1.13,3.26l-1.05,3.28c-.36,1.09-.66,2.2-1,3.31l-.93,3.31c1.39-4.37,2.79-8.74,4.42-13s3.3-8.56,5.15-12.76,3.8-8.34,5.87-12.44S446.46,167,448.84,163.08Z" style="fill: rgb(69, 90, 100); transform-origin: 437.77px 188.2px;" id="elm17keek22m" class="animable"></path><path d="M429,217.14s24.59-23.27,35.93-45l-.74-.83-44.1,42.82a35.8,35.8,0,0,0-12.49,7.54c-.44.4-.72.55-1.74.36s-7.86-3.23-13.83,2.17-2.84,11.4-5.05,13.4a7.85,7.85,0,0,1-7.66,2.21c-3.44-.65-3.56,2.32-.68,3a12.85,12.85,0,0,0,8.39-1.21c1.86-1.1,2.55-2.57,5.74-1.16a11,11,0,0,0,11.59-1.36c5.07-3.94,4-11.29,4.3-12.59s4.65-5.05,8.21-7.15S426.42,216.54,429,217.14Zm-26.65,19.8c-2.38,1.88-7,2.87-9.88-1.19-2.14-3-1.49-6.87,1.69-9.74a6.52,6.52,0,0,1,9.94.78C406.61,230.06,405,234.88,402.38,236.94Z" style="fill: rgb(69, 90, 100); transform-origin: 420.765px 207.179px;" id="eld7cyu1gucb" class="animable"></path><path d="M430.17,209.28a1.74,1.74,0,1,1,2.18,1.15A1.74,1.74,0,0,1,430.17,209.28Z" style="fill: rgb(199, 199, 199); transform-origin: 431.833px 208.769px;" id="elxletgv9fgqc" class="animable"></path><path d="M430.65,209.13a1.23,1.23,0,1,1,1.54.82A1.24,1.24,0,0,1,430.65,209.13Z" style="fill: rgb(235, 235, 235); transform-origin: 431.828px 208.773px;" id="el7abjqq4r7o" class="animable"></path><path d="M464.11,172.25q-1.89,3-3.88,5.85t-4,5.74c-2.73,3.79-5.54,7.53-8.46,11.18-1.44,1.85-2.94,3.64-4.42,5.46s-3,3.57-4.57,5.31l-2.33,2.62L434,211l-1.19,1.29-1.22,1.26-2.44,2.53c3.39-3.23,6.71-6.54,9.84-10l1.18-1.29,1.16-1.33,2.29-2.66c1.49-1.8,3-3.59,4.46-5.43,2.89-3.68,5.71-7.43,8.39-11.27S461.75,176.29,464.11,172.25Z" style="fill: rgb(38, 50, 56); transform-origin: 446.63px 194.165px;" id="elq7634youokg" class="animable"></path><path d="M392.43,239.56a11.19,11.19,0,0,0,5.7,1.47,9.8,9.8,0,0,0,9.1-6.73,17.76,17.76,0,0,0,.87-5.91,13.9,13.9,0,0,1,0-1.45,3.16,3.16,0,0,1,.55-1.25,12.77,12.77,0,0,1,1.93-2.17,37.74,37.74,0,0,1,4.66-3.59,20,20,0,0,1,5.29-2.54,16.85,16.85,0,0,1,5.8-1,12.23,12.23,0,0,0-3,.1,21,21,0,0,0-2.91.64,19.9,19.9,0,0,0-5.42,2.45,35.8,35.8,0,0,0-4.75,3.58,13.45,13.45,0,0,0-2,2.23,3.9,3.9,0,0,0-.63,1.44c-.06.56,0,1,0,1.52a17.25,17.25,0,0,1-.8,5.77,9.74,9.74,0,0,1-3.3,4.67,9.64,9.64,0,0,1-5.41,2A11.42,11.42,0,0,1,392.43,239.56Z" style="fill: rgb(38, 50, 56); transform-origin: 409.38px 228.686px;" id="eli6sej3jx5oa" class="animable"></path><polygon points="400.69 158.13 422.02 160.96 422.27 158.07 400.76 157.32 400.69 158.13" style="fill: rgb(38, 50, 56); transform-origin: 411.48px 159.14px;" id="el1tyl24byw6k" class="animable"></polygon><polygon points="400.43 161.03 421.76 163.86 422.02 160.96 400.51 160.21 400.43 161.03" style="fill: rgb(38, 50, 56); transform-origin: 411.225px 162.035px;" id="eljjthlj7677" class="animable"></polygon><polygon points="400.18 163.92 421.51 166.75 421.76 163.86 400.25 163.1 400.18 163.92" style="fill: rgb(38, 50, 56); transform-origin: 410.97px 164.925px;" id="el33rw3hlow0m" class="animable"></polygon><polygon points="399.92 166.81 421.25 169.65 421.51 166.75 399.99 166 399.92 166.81" style="fill: rgb(38, 50, 56); transform-origin: 410.715px 167.825px;" id="elfmne139eshq" class="animable"></polygon><polygon points="399.67 169.71 420.99 172.54 421.25 169.65 399.74 168.89 399.67 169.71" style="fill: rgb(38, 50, 56); transform-origin: 410.46px 170.715px;" id="elpl5ymc9apr" class="animable"></polygon><polygon points="399.41 172.6 420.74 175.43 420.99 172.54 399.48 171.79 399.41 172.6" style="fill: rgb(38, 50, 56); transform-origin: 410.2px 173.61px;" id="elglkqv2zv0rg" class="animable"></polygon><polygon points="399.15 175.5 420.48 178.33 420.74 175.43 399.23 174.68 399.15 175.5" style="fill: rgb(38, 50, 56); transform-origin: 409.945px 176.505px;" id="elg3sbfg808l5" class="animable"></polygon><polygon points="398.9 178.39 420.23 181.22 420.48 178.33 398.97 177.57 398.9 178.39" style="fill: rgb(38, 50, 56); transform-origin: 409.69px 179.395px;" id="eld6fu66zhnl" class="animable"></polygon><polygon points="398.64 181.28 419.97 184.11 420.23 181.22 398.71 180.47 398.64 181.28" style="fill: rgb(38, 50, 56); transform-origin: 409.435px 182.29px;" id="el6m810mpswew" class="animable"></polygon><polygon points="398.38 184.18 419.71 187.01 419.97 184.11 398.46 183.36 398.38 184.18" style="fill: rgb(38, 50, 56); transform-origin: 409.175px 185.185px;" id="el3ixhmdphv2s" class="animable"></polygon><polygon points="398.13 187.07 419.46 189.9 419.71 187.01 398.2 186.25 398.13 187.07" style="fill: rgb(38, 50, 56); transform-origin: 408.92px 188.075px;" id="el04ukj49z50q" class="animable"></polygon><polygon points="397.87 189.97 419.2 192.79 419.46 189.9 397.94 189.15 397.87 189.97" style="fill: rgb(38, 50, 56); transform-origin: 408.665px 190.97px;" id="el7qbf9egjh02" class="animable"></polygon><polygon points="397.62 192.86 418.94 195.69 419.2 192.79 397.69 192.04 397.62 192.86" style="fill: rgb(38, 50, 56); transform-origin: 408.41px 193.865px;" id="elqap9j4artk" class="animable"></polygon><polygon points="397.36 195.75 418.69 198.58 418.94 195.69 397.43 194.94 397.36 195.75" style="fill: rgb(38, 50, 56); transform-origin: 408.15px 196.76px;" id="el01xnjeb2e0vo" class="animable"></polygon><polygon points="397.1 198.65 418.43 201.48 418.69 198.58 397.18 197.83 397.1 198.65" style="fill: rgb(38, 50, 56); transform-origin: 407.895px 199.655px;" id="elfuafd8m1165" class="animable"></polygon><polygon points="396.85 201.54 418.18 204.37 418.43 201.48 396.92 200.72 396.85 201.54" style="fill: rgb(38, 50, 56); transform-origin: 407.64px 202.545px;" id="elo74hbill7ln" class="animable"></polygon><polygon points="396.59 204.43 417.92 207.26 418.18 204.37 396.66 203.62 396.59 204.43" style="fill: rgb(38, 50, 56); transform-origin: 407.385px 205.44px;" id="elcasdqu7xasl" class="animable"></polygon><polygon points="396.33 207.33 417.66 210.16 417.92 207.26 396.41 206.51 396.33 207.33" style="fill: rgb(38, 50, 56); transform-origin: 407.125px 208.335px;" id="elc6vjnj82j5o" class="animable"></polygon><polygon points="410.66 259.72 414.32 260.04 426.01 158.4 419.68 157.84 410.66 259.72" style="fill: rgb(38, 50, 56); transform-origin: 418.335px 208.94px;" id="elah6m75zygdp" class="animable"></polygon><path d="M440.42,253.17c.62,5.56-17.28,8.36-19.14,9.1a9.28,9.28,0,0,0-2,1.16s0,0,0,0h0l-.14.09c-1.69-1.31-9.85-7.54-17.74-10.46-3.69-1.37-8.94.66-10.68.23a59.22,59.22,0,0,1-7.16-2.28l-.32.55a108.72,108.72,0,0,0-14.8-4.44s9.88-13.34,23.08-20.46a57.54,57.54,0,0,1,12.94-4.55c8.43-2,17.16-2.86,18.87-1,3.85,4.16-4.09,5.76-5.09,6.17,1.24-.25,12-1,14.34,2.44,3.24,4.87-5.64,8.08-6.62,8.43,1-.06,10.62-.88,13,2.51,3.33,4.78-6.36,7.36-7.52,7.66C432.49,248.25,439.8,247.68,440.42,253.17Z" style="fill: rgb(255, 196, 192); transform-origin: 404.438px 241.801px;" id="elhwajuxju06f" class="animable"></path><path d="M409.22,256.91l.56.19c3.05-2.52,12.05-7,21.28-8.44.57-.09.6-.42,0-.37C419.62,249.17,412.14,254,409.22,256.91Z" style="fill: rgb(38, 50, 56); transform-origin: 420.359px 252.692px;" id="elkag9nghcw6j" class="animable"></path><path d="M425.52,238.58c-12.71,2.94-18.41,5.94-29.19,13.28-.15.1-.33-.12-.19-.24,10-8,16.28-12,29.26-13.36C426,238.19,426.11,238.44,425.52,238.58Z" style="fill: rgb(38, 50, 56); transform-origin: 411px 245.067px;" id="elusj8tgy3vsn" class="animable"></path><path d="M417.85,227.6c-12.18,3.65-18.56,6.67-28.2,15-.22.19-.52-.08-.31-.3,9-9.33,17-13.17,28.38-15C418.5,227.13,418.61,227.37,417.85,227.6Z" style="fill: rgb(38, 50, 56); transform-origin: 403.817px 234.953px;" id="el4xlfa0rlwui" class="animable"></path></g><g id="freepik--Table--inject-66" class="animable" style="transform-origin: 375px 475.07px;"><path d="M57.14,475.07c203.64-.61,432.08-.62,635.72,0-203.64.62-432.08.61-635.72,0Z" style="fill: rgb(38, 50, 56); transform-origin: 375px 475.07px;" id="elqnpah7f6niq" class="animable"></path></g><defs>     <filter id="active" height="200%">         <feMorphology in="SourceAlpha" result="DILATED" operator="dilate" radius="2"></feMorphology>                <feFlood flood-color="#32DFEC" flood-opacity="1" result="PINK"></feFlood>        <feComposite in="PINK" in2="DILATED" operator="in" result="OUTLINE"></feComposite>        <feMerge>            <feMergeNode in="OUTLINE"></feMergeNode>            <feMergeNode in="SourceGraphic"></feMergeNode>        </feMerge>    </filter>    <filter id="hover" height="200%">        <feMorphology in="SourceAlpha" result="DILATED" operator="dilate" radius="2"></feMorphology>                <feFlood flood-color="#ff0000" flood-opacity="0.5" result="PINK"></feFlood>        <feComposite in="PINK" in2="DILATED" operator="in" result="OUTLINE"></feComposite>        <feMerge>            <feMergeNode in="OUTLINE"></feMergeNode>            <feMergeNode in="SourceGraphic"></feMergeNode>        </feMerge>            <feColorMatrix type="matrix" values="0   0   0   0   0                0   1   0   0   0                0   0   0   0   0                0   0   0   1   0 "></feColorMatrix>    </filter></defs></svg>